<svg width="191" height="218" viewBox="0 0 191 218" fill="none" xmlns="http://www.w3.org/2000/svg">
<path fill-rule="evenodd" clip-rule="evenodd" d="M152.599 177.395L111.713 217.093H105.842L48 177.467H76.3946L110.692 205.921H114.753L149.476 177.399L152.599 177.395Z" fill="white"/>
<path fill-rule="evenodd" clip-rule="evenodd" d="M49.4014 39.6984L90.2875 0H96.1588L154.001 39.6258H125.608L91.3103 11.1718H87.2488L52.5259 39.6934L49.4014 39.6984Z" fill="white"/>
<path d="M5.20312 134V82.8125H22.7461C28.5352 82.8125 32.9414 83.9727 35.9648 86.293C38.9883 88.6133 40.5 92.0703 40.5 96.6641C40.5 99.0078 39.8672 101.117 38.6016 102.992C37.3359 104.867 35.4844 106.32 33.0469 107.352C35.8125 108.102 37.9453 109.52 39.4453 111.605C40.9688 113.668 41.7305 116.152 41.7305 119.059C41.7305 123.863 40.1836 127.555 37.0898 130.133C34.0195 132.711 29.6133 134 23.8711 134H5.20312ZM14.0977 110.902V126.898H23.9766C26.7656 126.898 28.9453 126.207 30.5156 124.824C32.0859 123.441 32.8711 121.52 32.8711 119.059C32.8711 113.738 30.1523 111.02 24.7148 110.902H14.0977ZM14.0977 104.363H22.8164C25.582 104.363 27.7383 103.742 29.2852 102.5C30.8555 101.234 31.6406 99.4531 31.6406 97.1562C31.6406 94.625 30.9141 92.7969 29.4609 91.6719C28.0312 90.5469 25.793 89.9844 22.7461 89.9844H14.0977V104.363ZM69.4336 114.277H59.5195V134H50.625V82.8125H68.625C74.5312 82.8125 79.0898 84.1367 82.3008 86.7852C85.5117 89.4336 87.1172 93.2656 87.1172 98.2812C87.1172 101.703 86.2852 104.574 84.6211 106.895C82.9805 109.191 80.6836 110.961 77.7305 112.203L89.2266 133.543V134H79.6992L69.4336 114.277ZM59.5195 107.141H68.6602C71.6602 107.141 74.0039 106.391 75.6914 104.891C77.3789 103.367 78.2227 101.293 78.2227 98.668C78.2227 95.9258 77.4375 93.8047 75.8672 92.3047C74.3203 90.8047 72 90.0312 68.9062 89.9844H59.5195V107.141ZM104.941 134H96.082V82.8125H104.941V134ZM145.793 111.148H124.77V126.898H149.344V134H115.875V82.8125H149.098V89.9844H124.77V104.117H145.793V111.148ZM186.082 112.309H165.48V134H156.586V82.8125H189.105V89.9844H165.48V105.207H186.082V112.309Z" fill="#F2F2F2"/>
</svg>
