<svg id="Layer_1" data-name="Layer 1" xmlns="http://www.w3.org/2000/svg" viewBox="0 0 59.93 67.63"><defs><style>.cls-1{fill:#f47a20;}</style></defs><path id="Path_850" data-name="Path 850" class="cls-1" d="M39.66,21.2,34.41,16a.46.46,0,0,0-.3-.11H14.61a.42.42,0,0,0-.4.4V47.67a.46.46,0,0,0,.45.45H29a.45.45,0,1,0,0-.89h-14V16.69H33.67v5.25h5.25V35a.45.45,0,0,0,.44.44.43.43,0,0,0,.45-.4V21.5A.36.36,0,0,0,39.66,21.2Zm-5.1-3.89,3.78,3.78H34.55Z"/><path id="Path_851" data-name="Path 851" class="cls-1" d="M38,51.79A7.75,7.75,0,1,1,45.72,44h0A7.76,7.76,0,0,1,38,51.79Zm0-14.62A6.87,6.87,0,1,0,44.83,44h0A6.87,6.87,0,0,0,38,37.17Z"/><path id="Path_852" data-name="Path 852" class="cls-1" d="M35.69,25.39H18.29a.44.44,0,0,1-.44-.44.42.42,0,0,1,.41-.44H35.69a.44.44,0,0,1,.44.44.42.42,0,0,1-.4.44Z"/><path id="Path_853" data-name="Path 853" class="cls-1" d="M35.69,31.85H18.29a.44.44,0,0,1-.44-.44.42.42,0,0,1,.41-.44H35.69a.44.44,0,0,1,.44.44.42.42,0,0,1-.4.44Z"/><path id="Path_854" data-name="Path 854" class="cls-1" d="M35.69,35.08H18.29a.44.44,0,1,1,0-.88H35.69a.44.44,0,0,1,.44.44.42.42,0,0,1-.4.44Z"/><path id="Path_855" data-name="Path 855" class="cls-1" d="M35.69,28.62H18.29a.44.44,0,1,1,0-.88H35.69a.44.44,0,0,1,.44.44.42.42,0,0,1-.4.44Z"/><path id="Path_856" data-name="Path 856" class="cls-1" d="M30.3,38.35h-12a.44.44,0,0,1-.42-.46.44.44,0,0,1,.42-.42h12a.43.43,0,0,1,.41.46A.43.43,0,0,1,30.3,38.35Z"/><path id="Path_857" data-name="Path 857" class="cls-1" d="M27,41.58h-8.7a.44.44,0,1,1,0-.88H27a.44.44,0,0,1,.46.42.44.44,0,0,1-.42.46Z"/><path id="Path_858" data-name="Path 858" class="cls-1" d="M41.82,42.24l-2-1.94a.42.42,0,0,0-.6,0l0,0-4.41,4.47a.46.46,0,0,0-.11.3l-.15,2.09a.55.55,0,0,0,.11.33.46.46,0,0,0,.3.11h0l2.09-.15a.36.36,0,0,0,.29-.11l4.48-4.48a.39.39,0,0,0,.11-.29A.34.34,0,0,0,41.82,42.24Zm-5,4.37-.33,0-1-1,0-.33,2.83-2.87,1.32,1.32Zm3.45-3.49L39,41.8l.58-.59,1.36,1.32Z"/></svg>