<svg id="Layer_1" data-name="Layer 1" xmlns="http://www.w3.org/2000/svg" viewBox="0 0 59.93 67.63"><defs><style>.cls-1{fill:#f47a20;}</style></defs><path id="Path_859" data-name="Path 859" class="cls-1" d="M30,30a8.24,8.24,0,1,0-8.25-8.24h0A8.25,8.25,0,0,0,30,30Zm0-15.22a7,7,0,1,1-7,7h0A7,7,0,0,1,30,14.78Z"/><path id="Path_860" data-name="Path 860" class="cls-1" d="M15.38,38.75a8.84,8.84,0,0,1,8.56-9.07h.78a8.91,8.91,0,0,1-1.5-1.24,10.16,10.16,0,0,0-9.1,10.22l1.26.14Z"/><path id="Path_861" data-name="Path 861" class="cls-1" d="M49.46,42.68h0c-.18.18-.36.35-.56.52A8.28,8.28,0,0,1,49,44.43c0,2-.64,3.1-1,3.31-.32-.22-.95-1.36-.95-3.31v-.11a7.19,7.19,0,0,1-1.27.4,6.86,6.86,0,0,0,.87,3.35L33.45,46.72V42.56l5-.55a7.29,7.29,0,0,1-.74-1.2l-4.63.51a2.51,2.51,0,0,0-2.14-1.17H28.38a2.52,2.52,0,0,0-2.1,1.12L12.85,39.79c-1.55-.17-2.34,1.07-2.77,2.35a8.23,8.23,0,0,0-.4,2.61,6.87,6.87,0,0,0,.86,3.6,2.36,2.36,0,0,0,2.31,1l5.83-.61-.34.53c-.74,1.16-.45,2.12.65,2.16l2,.07.75,1.85a1,1,0,0,0,.84.7c.4,0,.85-.32,1.27-1l3-4.67a2.54,2.54,0,0,0,1.59.55h2.53a2.52,2.52,0,0,0,2-.93l3.25,5.07a1.65,1.65,0,0,0,1.27,1c.34,0,.63-.23.83-.7L39,51.56l2-.07c1.1,0,1.39-1,.65-2.15l-.34-.53,5.82.59h.26a2.23,2.23,0,0,0,2.15-1.54,7.45,7.45,0,0,0,.76-3.44,8.56,8.56,0,0,0-.31-2.3c-.16.2-.32.39-.49.57ZM11.9,48.05c-.32-.21-1-1.36-1-3.31s.64-3.1,1-3.31a4.68,4.68,0,0,1,.95,3.31C12.85,46.69,12.21,47.85,11.9,48.05Zm10.84,4.43v0l-.9-2.21-2.54-.09c0-.06,1-1.58,1-1.58l5.27-.55Zm-9.31-4.4a7.53,7.53,0,0,0,.68-3.33,7,7,0,0,0-.86-3.63l12.6,1.38v4a2.62,2.62,0,0,0,0,.28Zm18.76-1.59a1.27,1.27,0,0,1-1.27,1.27H28.38a1.27,1.27,0,0,1-1.27-1.27v-3.8a1.27,1.27,0,0,1,1.26-1.28h2.54a1.27,1.27,0,0,1,1.27,1.27Zm5.92,3.8-.9,2.22,0,0L34.38,48.1l5.28.54L40.54,50l.12.21Z"/><path id="Path_862" data-name="Path 862" class="cls-1" d="M35.22,29.68H36a8.2,8.2,0,0,1,4.76,1.53,7.77,7.77,0,0,1,1.32-.58,9.48,9.48,0,0,0-5.35-2.18A9.82,9.82,0,0,1,35.22,29.68Z"/><path id="Path_863" data-name="Path 863" class="cls-1" d="M38.21,37.61a6,6,0,1,0,6-6h0A6,6,0,0,0,38.21,37.61Zm6-4.76a4.76,4.76,0,1,1-4.75,4.76h0A4.76,4.76,0,0,1,44.23,32.85Z"/><path id="Path_864" data-name="Path 864" class="cls-1" d="M33.43,34.6a.67.67,0,0,0-.52-.44l-1.65-.22-.73-1.38a.64.64,0,0,0-.86-.27.62.62,0,0,0-.26.27l-.73,1.38L27,34.16a.64.64,0,0,0-.34,1.1l1.16,1.07-.27,1.49a.63.63,0,0,0,.51.73.59.59,0,0,0,.39,0L30,37.77l1.49.73a.63.63,0,0,0,.84-.29.66.66,0,0,0,.06-.39l-.27-1.49,1.17-1.07A.64.64,0,0,0,33.43,34.6Zm-2.46,1a.6.6,0,0,0-.2.58l.1.6-.63-.32a.68.68,0,0,0-.56,0l-.63.32.11-.6a.65.65,0,0,0-.2-.58l-.43-.39.64-.09a.62.62,0,0,0,.47-.31l.33-.61.31.61a.64.64,0,0,0,.48.31l.63.09Z"/><path id="Path_865" data-name="Path 865" class="cls-1" d="M42.82,39.11a.64.64,0,0,0,.87.13L46.82,37a.64.64,0,0,0-.73-1l-2.64,1.87-.93-1.21a.64.64,0,0,0-1,.78Z"/></svg>