<svg id="Layer_1" data-name="Layer 1" xmlns="http://www.w3.org/2000/svg" viewBox="0 0 59.93 67.63"><defs><style>.cls-1{fill:#f47a20;}</style></defs><g id="Group_646" data-name="Group 646"><path id="Path_874" data-name="Path 874" class="cls-1" d="M21.7,27.57a4.86,4.86,0,1,0-4.85-4.85A4.85,4.85,0,0,0,21.7,27.57Zm0-8.32a3.47,3.47,0,1,1-3.47,3.47h0A3.48,3.48,0,0,1,21.7,19.25Z"/><path id="Path_875" data-name="Path 875" class="cls-1" d="M21.7,24.8a2.08,2.08,0,1,0-2.08-2.08A2.08,2.08,0,0,0,21.7,24.8Zm0-2.78a.7.7,0,1,1-.69.7A.69.69,0,0,1,21.7,22Z"/><rect id="Rectangle_88" data-name="Rectangle 88" class="cls-1" x="21.01" y="33.12" width="1.39" height="1.39"/><rect id="Rectangle_89" data-name="Rectangle 89" class="cls-1" x="21.01" y="37.28" width="1.39" height="1.39"/><rect id="Rectangle_90" data-name="Rectangle 90" class="cls-1" x="21.01" y="41.44" width="1.39" height="1.39"/><path id="Path_876" data-name="Path 876" class="cls-1" d="M48.75,17.38l2.65-4-1.15-.77-2.57,3.86H40.42V24.8h8.33Zm-6.94,6V17.86h4.95l-1.59,2.38-1.48-1.48-1,1,2.68,2.68,2-3v3.95Z"/><path id="Path_877" data-name="Path 877" class="cls-1" d="M51.52,42.83H29.33V41.44H46V34.51H29.33V33.12h11.1V26.19H32.28a15,15,0,0,0,2.5-3.11l.22-.36-.22-.36A15,15,0,0,0,29,16.85l1.67-2.79-1.19-.71-1.75,2.9a14.41,14.41,0,0,0-1.6-.56l.46-1.82-1.35-.34-.45,1.83a14.19,14.19,0,0,0-2.34-.25V12.32H21V15.1a15.23,15.23,0,0,0-2.34.26l-.46-1.83-1.34.34.45,1.82a15.16,15.16,0,0,0-1.6.56L14,13.35l-1.19.71,1.67,2.79a15,15,0,0,0-5.84,5.51l-.21.36.21.35a15,15,0,0,0,5.46,5.31V45.12l6,9.3a2,2,0,0,0,2.72.58,2,2,0,0,0,.58-.58l3-4.65H51.52Zm-6.93-6.94v4.17H29.33V35.89ZM39,27.57v4.16H29.33V28.38q.65-.37,1.26-.81Zm-5.67-4.85a13.69,13.69,0,0,1-6,5.09,7.59,7.59,0,0,0,0-10.19A13.64,13.64,0,0,1,33.37,22.72ZM21.7,16.48a6.24,6.24,0,1,1-6.24,6.24h0A6.24,6.24,0,0,1,21.7,16.48ZM18.23,30a14.69,14.69,0,0,0,3.24.36h.47A14.67,14.67,0,0,0,25.17,30V42.14a3.47,3.47,0,0,1-6.94,0V30ZM10,22.72a13.54,13.54,0,0,1,6-5.1,7.57,7.57,0,0,0,0,10.19A13.58,13.58,0,0,1,10,22.72Zm5.42,6.35a12.86,12.86,0,0,0,1.39.53V42.14a4.86,4.86,0,0,0,9.71,0V29.6a13.54,13.54,0,0,0,1.38-.53V44.71l-3.25,5h-6l-3.25-5Zm6.73,24.59a.61.61,0,0,1-.84.13.53.53,0,0,1-.13-.13L19.6,51.15h4.2Zm27.94-5.29H27.23l2.1-3.26v-.9h20.8Z"/></g></svg>