<svg xmlns="http://www.w3.org/2000/svg" id="Group_669" width="84" height="84" viewBox="0 0 84 84">
    <defs>
        <style>
            .cls-2{fill:#029bfd}
        </style>
    </defs>
    <g id="Ellipse_15" fill="#fff" stroke="#ececec" stroke-width="2px">
        <circle cx="42" cy="42" r="42" stroke="none"/>
        <circle cx="42" cy="42" r="41" fill="none"/>
    </g>
    <g id="noun_eligible_2202386" transform="translate(15.02 15.02)">
        <path id="Path_859" d="M48.873 21.745A10.873 10.873 0 1 0 38 10.873a10.873 10.873 0 0 0 10.873 10.872zm0-20.072a9.2 9.2 0 1 1-9.2 9.2 9.2 9.2 0 0 1 9.2-9.2z" class="cls-2" transform="translate(-22.109)"/>
        <path id="Path_860" d="M15.673 60.691c0-6.595 5.068-11.96 11.291-11.96h1.012a12.637 12.637 0 0 1-1.983-1.631C19.34 47.623 14.067 53.448 14 60.565l1.673.184z" class="cls-2" transform="translate(-8.145 -27.404)"/>
        <path id="Path_861" d="M52.472 86.664a9.586 9.586 0 0 1-.732.677 10.454 10.454 0 0 1 .113 1.622c0 2.572-.836 4.086-1.255 4.366-.418-.28-1.255-1.794-1.255-4.366v-.142a9.536 9.536 0 0 1-1.673.535 9.1 9.1 0 0 0 1.154 4.416l-17.461-1.784V86.5l6.565-.715a9.619 9.619 0 0 1-.974-1.577l-6.11.669a3.345 3.345 0 0 0-2.827-1.556h-3.345A3.345 3.345 0 0 0 21.9 84.8L4.181 82.851c-2.041-.226-3.078 1.405-3.646 3.1A10.872 10.872 0 0 0 0 89.383a9.044 9.044 0 0 0 1.137 4.746 3.1 3.1 0 0 0 3.044 1.393l7.694-.8-.447.7c-.974 1.518-.59 2.789.857 2.839l2.618.092.987 2.438c.255.619.652.924 1.1.924.527 0 1.129-.418 1.673-1.255l3.914-6.16a3.345 3.345 0 0 0 2.091.723h3.345A3.345 3.345 0 0 0 30.6 93.8l4.282 6.691c.523.836 1.125 1.255 1.673 1.255.452 0 .836-.305 1.1-.924l.979-2.446 2.618-.092c1.447-.05 1.832-1.321.857-2.839l-.443-.69 7.673.769a3.317 3.317 0 0 0 .339 0 2.927 2.927 0 0 0 2.831-2.028 9.76 9.76 0 0 0 1.012-4.529 11.353 11.353 0 0 0-.418-3.04q-.3.386-.636.74zM2.927 93.748c-.418-.28-1.255-1.794-1.255-4.366s.836-4.086 1.255-4.366c.418.28 1.255 1.794 1.255 4.366s-.837 4.086-1.255 4.366zm14.306 5.834l-.021.033-1.188-2.915-3.345-.117c.037-.083 1.321-2.09 1.321-2.09l6.946-.719zM4.951 93.773a10 10 0 0 0 .9-4.391 9.4 9.4 0 0 0-1.137-4.788l16.61 1.827v5.261a3.347 3.347 0 0 0 .021.372zm24.739-2.09a1.673 1.673 0 0 1-1.673 1.673h-3.345A1.673 1.673 0 0 1 23 91.683v-5.019a1.673 1.673 0 0 1 1.673-1.673h3.345a1.673 1.673 0 0 1 1.673 1.673zM37.5 96.7l-1.183 2.927-.021-.033-3.705-5.783 6.958.715 1.163 1.811a2.6 2.6 0 0 1 .155.276z" class="cls-2" transform="translate(0 -48.193)"/>
        <path id="Path_862" d="M80.56 48.731h1.02a10.8 10.8 0 0 1 6.273 2.016 9.563 9.563 0 0 1 1.748-.761 12.545 12.545 0 0 0-7.059-2.886 12.638 12.638 0 0 1-1.982 1.631z" class="cls-2" transform="translate(-46.872 -27.404)"/>
        <path id="Path_863" d="M90 64.945A7.945 7.945 0 1 0 97.945 57 7.945 7.945 0 0 0 90 64.945zm7.945-6.273a6.273 6.273 0 1 1-6.273 6.273 6.273 6.273 0 0 1 6.273-6.272z" class="cls-2" transform="translate(-52.364 -33.164)"/>
        <path id="Path_864" d="M62.161 62.14a.836.836 0 0 0-.686-.581l-2.174-.3-.962-1.823a.836.836 0 0 0-1.48 0l-.959 1.825-2.175.3a.836.836 0 0 0-.452 1.447l1.539 1.4-.36 1.965a.836.836 0 0 0 1.192.9l1.957-.962 1.957.962a.836.836 0 0 0 1.192-.9l-.36-1.965 1.539-1.4a.836.836 0 0 0 .232-.868zm-3.245 1.347a.836.836 0 0 0-.259.769l.142.786-.836-.418a.836.836 0 0 0-.736 0l-.836.418.142-.786a.836.836 0 0 0-.259-.769l-.556-.51.836-.113a.836.836 0 0 0 .627-.418l.418-.8.418.8a.836.836 0 0 0 .627.418l.836.113z" class="cls-2" transform="translate(-30.835 -34.323)"/>
        <path id="Path_865" d="M101.891 74.806a.836.836 0 0 0 1.146.171l4.132-2.927a.836.836 0 0 0-.966-1.363l-3.479 2.463-1.229-1.593a.836.836 0 1 0-1.326 1.02z" class="cls-2" transform="translate(-58.179 -41.051)"/>
    </g>
</svg>
