<svg xmlns="http://www.w3.org/2000/svg" width="84" height="84" viewBox="0 0 84 84">
    <defs>
        <style>
            .cls-2{fill:#029bfd}
        </style>
    </defs>
    <g id="Group_668" transform="translate(.194)">
        <g id="Ellipse_16" fill="#fff" stroke="#ececec" stroke-width="2px" transform="translate(-.194)">
            <circle cx="42" cy="42" r="42" stroke="none"/>
            <circle cx="42" cy="42" r="41" fill="none"/>
        </g>
        <g id="Group_642" transform="translate(17.806 15.999)">
            <g id="Group_641">
                <path id="Path_866" d="M11.855 9.709h3.419a.855.855 0 1 0 0-1.709h-3.419a.855.855 0 0 0 0 1.709z" class="cls-2" transform="translate(-1.598 -1.162)"/>
                <path id="Path_867" d="M21.564 8h-1.709a.855.855 0 1 0 0 1.709h1.709a.855.855 0 1 0 0-1.709z" class="cls-2" transform="translate(-2.761 -1.162)"/>
                <path id="Path_868" d="M21.273 16h-3.418a.855.855 0 1 0 0 1.709h3.419a.855.855 0 1 0 0-1.709z" class="cls-2" transform="translate(-2.47 -2.325)"/>
                <path id="Path_869" d="M13.564 16h-1.709a.855.855 0 1 0 0 1.709h1.709a.855.855 0 1 0 0-1.709z" class="cls-2" transform="translate(-1.598 -2.325)"/>
                <path id="Path_870" d="M20.4 12h-8.545a.855.855 0 0 0 0 1.709H20.4a.855.855 0 0 0 0-1.709z" class="cls-2" transform="translate(-1.598 -1.744)"/>
                <path id="Path_871" d="M41.419 24a3.412 3.412 0 0 0-.855 6.716v1.831a.855.855 0 0 0 1.709 0v-1.831A3.412 3.412 0 0 0 41.419 24zm0 5.128a1.709 1.709 0 1 1 1.709-1.709 1.709 1.709 0 0 1-1.709 1.709z" class="cls-2" transform="translate(-5.522 -3.487)"/>
                <path id="Path_872" d="M47.008 21.367a.842.842 0 0 0-.029-.145v-3.273a1.709 1.709 0 0 0-1.709-1.709h-.826v-3.42a8.5 8.5 0 0 0-1.709-5.111V2.564A2.564 2.564 0 0 0 40.171 0H5.983A5.991 5.991 0 0 0 0 5.983V45.3a5.991 5.991 0 0 0 5.983 5.983h34.188a2.564 2.564 0 0 0 2.564-2.564V35.641a5.988 5.988 0 0 0 4.234-5.529.823.823 0 0 0 .039-.2.842.842 0 0 0-.029-.145v-3.981a.378.378 0 0 0 0-.291v-3.982a.842.842 0 0 0 .029-.146zm-4.273-5.128H29.06V12.82a6.838 6.838 0 1 1 13.675 0zm-1.71 32.478a.855.855 0 0 1-.855.855H5.983a4.273 4.273 0 1 1 0-8.547h35.042v1.709H6.838a.855.855 0 1 0 0 1.709h34.187v1.709H6.838a.855.855 0 0 0 0 1.709h34.187zm0-9.4H5.983a5.96 5.96 0 0 0-4.273 1.8V5.983a4.281 4.281 0 0 1 3.418-4.188v34.957a.855.855 0 0 0 1.709 0V1.709h33.334a.855.855 0 0 1 .855.855V6a8.531 8.531 0 0 0-13.676 6.82v3.419h-.884a1.709 1.709 0 0 0-1.709 1.709v11.966A5.99 5.99 0 0 0 30.74 35.9h10.285zM41 34.188H30.74a4.281 4.281 0 0 1-4.188-3.419H28.2a.855.855 0 1 0 0-1.709h-1.734V26.5H28.2a.855.855 0 1 0 0-1.709h-1.734v-2.569H28.2a.855.855 0 1 0 0-1.709h-1.734v-2.564h18.8v2.564h-1.68a.855.855 0 1 0 0 1.709h1.68v2.564h-1.68a.855.855 0 1 0 0 1.709h1.68v2.565h-1.68a.855.855 0 1 0 0 1.709h1.594A4.281 4.281 0 0 1 41 34.188z" class="cls-2"/>
            </g>
        </g>
    </g>
</svg>
