<svg xmlns="http://www.w3.org/2000/svg" width="84" height="84" viewBox="0 0 84 84">
    <defs>
        <style>
            .cls-2{fill:#029bfd}
        </style>
    </defs>
    <g id="Group_667" transform="translate(.022)">
        <g id="Ellipse_17" fill="#fff" stroke="#ececec" stroke-width="2px" transform="translate(-.022)">
            <circle cx="42" cy="42" r="42" stroke="none"/>
            <circle cx="42" cy="42" r="41" fill="none"/>
        </g>
        <g id="noun_evaluation_3148444" transform="translate(12.289 12.289)">
            <g id="Group_646">
                <path id="Path_874" d="M19.734 22.467A6.734 6.734 0 1 0 13 15.734a6.742 6.742 0 0 0 6.734 6.733zm0-11.543a4.81 4.81 0 1 1-4.81 4.81 4.815 4.815 0 0 1 4.81-4.81z" class="cls-2" transform="translate(-1.297 -1.304)"/>
                <path id="Path_875" d="M19.886 18.772A2.886 2.886 0 1 0 17 15.886a2.889 2.889 0 0 0 2.886 2.886zm0-3.848a.962.962 0 1 1-.962.962.963.963 0 0 1 .962-.962z" class="cls-2" transform="translate(-1.449 -1.457)"/>
                <path id="Rectangle_88" d="M0 0H1.924V1.924H0z" class="cls-2" transform="translate(17.475 28.858)"/>
                <path id="Rectangle_89" d="M0 0H1.924V1.924H0z" class="cls-2" transform="translate(17.475 34.63)"/>
                <path id="Rectangle_90" d="M0 0H1.924V1.924H0z" class="cls-2" transform="translate(17.475 40.402)"/>
                <path id="Path_876" d="M58.543 8.042l3.687-5.529-1.6-1.067-3.563 5.343H47v11.543h11.543zm-9.619 8.366v-7.7h6.861l-2.2 3.3-2.057-2.052-1.36 1.36 3.715 3.716 2.737-4.1v5.48z" class="cls-2" transform="translate(-2.591 -1.017)"/>
                <path id="Path_877" d="M60.634 43.326H29.852V41.4h23.087v-9.618H29.852v-1.924h15.391v-9.619h-11.3a20.6 20.6 0 0 0 3.464-4.314l.3-.5-.3-.5a20.784 20.784 0 0 0-8.092-7.635l2.323-3.872-1.65-.99-2.418 4.03a20.955 20.955 0 0 0-2.226-.78l.63-2.521-1.865-.467-.633 2.533a20.569 20.569 0 0 0-3.244-.354V1h-1.923v3.869a20.569 20.569 0 0 0-3.244.354l-.633-2.533-1.866.468.63 2.521a20.955 20.955 0 0 0-2.226.78L8.552 2.428 6.9 3.419l2.326 3.872a20.784 20.784 0 0 0-8.095 7.644l-.3.494.3.5a20.772 20.772 0 0 0 7.558 7.359v23.21l8.289 12.9a2.724 2.724 0 0 0 4.584 0l4.143-6.444h34.929zm-9.619-9.619v5.772H29.852v-5.773zm-7.7-11.543v5.772H29.852v-4.653c.6-.341 1.181-.721 1.746-1.121zm-7.867-6.734a18.915 18.915 0 0 1-8.328 7.065 10.515 10.515 0 0 0 0-14.129 18.913 18.913 0 0 1 8.333 7.063zM19.271 6.772a8.658 8.658 0 1 1-8.658 8.658 8.667 8.667 0 0 1 8.658-8.658zM14.461 25.5a20.57 20.57 0 0 0 4.485.506h.65a20.57 20.57 0 0 0 4.484-.506v16.864a4.81 4.81 0 0 1-9.619 0V25.5zM3.089 15.429a18.915 18.915 0 0 1 8.328-7.065 10.515 10.515 0 0 0 0 14.129 18.913 18.913 0 0 1-8.328-7.064zm7.524 8.81c.629.277 1.27.527 1.924.741v17.384a6.734 6.734 0 0 0 13.467 0V24.98c.654-.214 1.295-.464 1.924-.741v21.69l-4.511 7.016h-8.294l-4.51-7.015zm9.33 34.11a.828.828 0 0 1-1.346 0l-2.237-3.48h5.821zm38.767-7.328H26.941l2.911-4.528V45.25H58.71z" class="cls-2" transform="translate(-.834 -1)"/>
            </g>
        </g>
    </g>
</svg>
