<svg width="196" height="272" viewBox="0 0 196 272" fill="none" xmlns="http://www.w3.org/2000/svg">
<path fill-rule="evenodd" clip-rule="evenodd" d="M182.814 202.346L111.746 271.346H101.541L0.998047 202.473H50.3531L109.969 251.933H117.03L177.383 202.352L182.814 202.346Z" fill="#ECECEC"/>
<path fill-rule="evenodd" clip-rule="evenodd" d="M3.43506 69.0059L74.5031 0.00585938H84.7091L185.247 68.8779H135.897L76.2821 19.4178H69.2211L8.86406 68.9958L3.43506 69.0059Z" fill="#ECECEC"/>
<path d="M94.8581 202.471C77.0321 202.451 59.9421 195.361 47.3372 182.756C34.7324 170.151 27.6422 153.061 27.6221 135.235C27.6422 117.409 34.7324 100.319 47.3372 87.7142C59.9421 75.1094 77.0321 68.0191 94.8581 67.999C112.684 68.0191 129.774 75.1094 142.379 87.7142C154.984 100.319 162.074 117.409 162.094 135.235C162.074 153.061 154.984 170.151 142.379 182.756C129.774 195.361 112.684 202.451 94.8581 202.471V202.471ZM94.8581 68.733C77.2275 68.7537 60.325 75.7665 47.8583 88.2332C35.3916 100.7 28.3787 117.602 28.3581 135.233C28.3787 152.864 35.3916 169.766 47.8583 182.233C60.325 194.7 77.2275 201.712 94.8581 201.733C112.489 201.712 129.391 194.7 141.858 182.233C154.325 169.766 161.337 152.864 161.358 135.233C161.337 117.603 154.324 100.7 141.858 88.2339C129.391 75.7674 112.488 68.7547 94.8581 68.734V68.733Z" stroke="#F77A19" stroke-width="3"/>
<path d="M94.857 214.822C73.7566 214.798 53.5274 206.405 38.6071 191.485C23.6869 176.565 15.2941 156.335 15.27 135.235H16.004C16.0276 156.141 24.3429 176.184 39.1258 190.967C53.9087 205.75 73.9519 214.065 94.858 214.089C137.399 214.089 172.764 179.503 173.692 136.989L173.7 136.63H189.269V137.364H174.417C173.913 158.023 165.347 177.665 150.55 192.09C135.701 206.702 115.69 214.87 94.857 214.822Z" stroke="#707070" stroke-width="3"/>
<path d="M188.671 141.455V132.544L193.125 137L188.671 141.455Z" stroke="#707070" stroke-width="3"/>
<path d="M73.895 136.134C73.3807 136.805 72.6678 137.313 71.7563 137.658C70.8449 138.003 69.8097 138.175 68.6509 138.175C67.4595 138.175 66.4048 137.905 65.4868 137.365C64.5688 136.824 63.8592 136.053 63.3579 135.05C62.8631 134.041 62.606 132.866 62.5864 131.525V130.412C62.5864 128.263 63.1007 126.587 64.1294 125.382C65.158 124.171 66.5936 123.566 68.436 123.566C70.0181 123.566 71.2746 123.957 72.2056 124.738C73.1366 125.519 73.6965 126.645 73.8853 128.117H71.4634C71.1899 126.404 70.1971 125.548 68.4849 125.548C67.3781 125.548 66.535 125.949 65.9556 126.75C65.3826 127.544 65.0864 128.712 65.0669 130.255V131.349C65.0669 132.886 65.3892 134.08 66.0337 134.933C66.6847 135.779 67.5864 136.203 68.7388 136.203C70.0018 136.203 70.9002 135.916 71.4341 135.343V132.56H68.5044V130.685H73.895V136.134ZM81.8345 132.501H79.0806V137.98H76.6099V123.761H81.6099C83.2505 123.761 84.5168 124.129 85.4087 124.865C86.3006 125.6 86.7466 126.665 86.7466 128.058C86.7466 129.009 86.5155 129.806 86.0532 130.451C85.5975 131.089 84.9595 131.58 84.1392 131.925L87.3325 137.853V137.98H84.686L81.8345 132.501ZM79.0806 130.519H81.6196C82.453 130.519 83.104 130.311 83.5728 129.894C84.0415 129.471 84.2759 128.895 84.2759 128.166C84.2759 127.404 84.0578 126.815 83.6216 126.398C83.1919 125.981 82.5474 125.766 81.688 125.753H79.0806V130.519ZM97.0493 134.669H91.5415L90.3892 137.98H87.8208L93.1919 123.761H95.4087L100.79 137.98H98.2114L97.0493 134.669ZM92.2349 132.677H96.356L94.2954 126.779L92.2349 132.677ZM113.69 137.98H111.219L104.881 127.892V137.98H102.411V123.761H104.881L111.239 133.888V123.761H113.69V137.98ZM116.61 137.98V123.761H120.809C122.066 123.761 123.179 124.041 124.149 124.601C125.125 125.161 125.881 125.955 126.415 126.984C126.948 128.013 127.215 129.191 127.215 130.519V131.232C127.215 132.58 126.945 133.764 126.405 134.787C125.871 135.809 125.106 136.597 124.11 137.15C123.12 137.703 121.984 137.98 120.702 137.98H116.61ZM119.081 125.753V136.007H120.692C121.987 136.007 122.98 135.604 123.67 134.796C124.367 133.983 124.722 132.817 124.735 131.3V130.509C124.735 128.966 124.4 127.788 123.729 126.974C123.058 126.16 122.085 125.753 120.809 125.753H119.081ZM77.9771 146.761H80.438V156.732C80.438 158.093 80.0116 159.173 79.1587 159.974C78.3123 160.775 77.1925 161.175 75.7993 161.175C74.3149 161.175 73.1691 160.801 72.3618 160.052C71.5545 159.304 71.1509 158.262 71.1509 156.927H73.6118C73.6118 157.682 73.7974 158.252 74.1685 158.636C74.5461 159.014 75.0897 159.203 75.7993 159.203C76.4634 159.203 76.9907 158.985 77.3813 158.548C77.7785 158.106 77.9771 157.497 77.9771 156.722V146.761ZM93.6704 146.761V156.263C93.6704 157.774 93.1854 158.972 92.2153 159.857C91.2518 160.736 89.966 161.175 88.3579 161.175C86.7303 161.175 85.438 160.742 84.481 159.876C83.5239 159.004 83.0454 157.796 83.0454 156.253V146.761H85.5063V156.273C85.5063 157.223 85.7472 157.949 86.229 158.451C86.7108 158.952 87.4204 159.203 88.3579 159.203C90.259 159.203 91.2095 158.2 91.2095 156.195V146.761H93.6704ZM101.542 155.501H98.7876V160.98H96.3169V146.761H101.317C102.958 146.761 104.224 147.129 105.116 147.865C106.008 148.6 106.454 149.665 106.454 151.058C106.454 152.009 106.222 152.806 105.76 153.451C105.305 154.089 104.667 154.58 103.846 154.925L107.04 160.853V160.98H104.393L101.542 155.501ZM98.7876 153.519H101.327C102.16 153.519 102.811 153.311 103.28 152.894C103.749 152.471 103.983 151.895 103.983 151.166C103.983 150.404 103.765 149.815 103.329 149.398C102.899 148.981 102.254 148.766 101.395 148.753H98.7876V153.519ZM112.967 153.5L116.239 146.761H118.973L114.208 155.746V160.98H111.727V155.746L106.952 146.761H109.696L112.967 153.5Z" fill="#00124D"/>
</svg>
