<svg width="175" height="218" viewBox="0 0 175 218" fill="none" xmlns="http://www.w3.org/2000/svg">
<path fill-rule="evenodd" clip-rule="evenodd" d="M152.599 177.395L111.713 217.093H105.842L48 177.467H76.3946L110.692 205.921H114.753L149.476 177.399L152.599 177.395Z" fill="white"/>
<path fill-rule="evenodd" clip-rule="evenodd" d="M49.4014 39.6984L90.2875 0H96.1588L154.001 39.6258H125.608L91.3103 11.1718H87.2488L52.5259 39.6934L49.4014 39.6984Z" fill="white"/>
<path d="M26.1562 82.8125H35.0156V118.707C35.0156 123.605 33.4805 127.496 30.4102 130.379C27.3633 133.262 23.332 134.703 18.3164 134.703C12.9727 134.703 8.84766 133.355 5.94141 130.66C3.03516 127.965 1.58203 124.215 1.58203 119.41H10.4414C10.4414 122.129 11.1094 124.18 12.4453 125.562C13.8047 126.922 15.7617 127.602 18.3164 127.602C20.707 127.602 22.6055 126.816 24.0117 125.246C25.4414 123.652 26.1562 121.461 26.1562 118.672V82.8125ZM82.6523 82.8125V117.02C82.6523 122.457 80.9062 126.77 77.4141 129.957C73.9453 133.121 69.3164 134.703 63.5273 134.703C57.668 134.703 53.0156 133.145 49.5703 130.027C46.125 126.887 44.4023 122.539 44.4023 116.984V82.8125H53.2617V117.055C53.2617 120.477 54.1289 123.09 55.8633 124.895C57.5977 126.699 60.1523 127.602 63.5273 127.602C70.3711 127.602 73.793 123.992 73.793 116.773V82.8125H82.6523ZM110.988 114.277H101.074V134H92.1797V82.8125H110.18C116.086 82.8125 120.645 84.1367 123.855 86.7852C127.066 89.4336 128.672 93.2656 128.672 98.2812C128.672 101.703 127.84 104.574 126.176 106.895C124.535 109.191 122.238 110.961 119.285 112.203L130.781 133.543V134H121.254L110.988 114.277ZM101.074 107.141H110.215C113.215 107.141 115.559 106.391 117.246 104.891C118.934 103.367 119.777 101.293 119.777 98.668C119.777 95.9258 118.992 93.8047 117.422 92.3047C115.875 90.8047 113.555 90.0312 110.461 89.9844H101.074V107.141ZM152.121 107.07L163.898 82.8125H173.742L156.586 115.156V134H147.656V115.156L130.465 82.8125H140.344L152.121 107.07Z" fill="#F2F2F2"/>
</svg>
