<svg width="194" height="272" viewBox="0 0 194 272" fill="none" xmlns="http://www.w3.org/2000/svg">
<path fill-rule="evenodd" clip-rule="evenodd" d="M182.751 202.346L111.683 271.346H101.478L0.935059 202.473H50.2901L109.906 251.933H116.967L177.32 202.352L182.751 202.346Z" fill="#ECECEC"/>
<path fill-rule="evenodd" clip-rule="evenodd" d="M3.37207 69.0059L74.4401 0.00585938H84.6461L185.184 68.8779H135.834L76.2191 19.4178H69.1581L8.80107 68.9958L3.37207 69.0059Z" fill="#ECECEC"/>
<path d="M92.7961 202.471C74.9701 202.451 57.8801 195.361 45.2752 182.756C32.6704 170.151 25.5802 153.061 25.5601 135.235C25.5802 117.409 32.6704 100.319 45.2752 87.7142C57.8801 75.1094 74.9701 68.0191 92.7961 67.999C110.622 68.0191 127.712 75.1094 140.317 87.7142C152.922 100.319 160.012 117.409 160.032 135.235C160.012 153.061 152.922 170.151 140.317 182.756C127.712 195.361 110.622 202.451 92.7961 202.471V202.471ZM92.7961 68.733C75.1655 68.7537 58.2629 75.7665 45.7962 88.2332C33.3296 100.7 26.3167 117.602 26.2961 135.233C26.3167 152.864 33.3296 169.766 45.7962 182.233C58.2629 194.7 75.1655 201.712 92.7961 201.733C110.427 201.712 127.329 194.7 139.796 182.233C152.263 169.766 159.275 152.864 159.296 135.233C159.275 117.603 152.262 100.7 139.796 88.2339C127.329 75.7674 110.426 68.7547 92.7961 68.734V68.733Z" stroke="#F77A19" stroke-width="3"/>
<path d="M92.795 214.822C71.6946 214.798 51.4653 206.405 36.5451 191.485C21.6249 176.565 13.2321 156.335 13.208 135.235H13.942C13.9656 156.141 22.2809 176.184 37.0638 190.967C51.8467 205.75 71.8899 214.065 92.796 214.089C135.337 214.089 170.702 179.503 171.63 136.989L171.638 136.63H187.207V137.364H172.355C171.851 158.023 163.285 177.665 148.488 192.09C133.639 206.702 113.628 214.87 92.795 214.822Z" stroke="#707070" stroke-width="3"/>
<path d="M186.609 141.455V132.544L191.063 137L186.609 141.455Z" stroke="#707070" stroke-width="3"/>
<path d="M56.4517 123.761L60.5532 134.66L64.645 123.761H67.8384V137.98H65.3774V133.292L65.6216 127.023L61.4224 137.98H59.6548L55.4653 127.033L55.7095 133.292V137.98H53.2485V123.761H56.4517ZM78.9028 134.669H73.395L72.2427 137.98H69.6743L75.0454 123.761H77.2622L82.6431 137.98H80.0649L78.9028 134.669ZM74.0884 132.677H78.2095L76.1489 126.779L74.0884 132.677ZM91.6958 134.318C91.6958 133.693 91.4744 133.211 91.0317 132.873C90.5955 132.534 89.8045 132.192 88.6587 131.847C87.5129 131.502 86.6014 131.118 85.9243 130.695C84.6287 129.881 83.981 128.82 83.981 127.511C83.981 126.365 84.4465 125.421 85.3774 124.679C86.3149 123.937 87.5291 123.566 89.02 123.566C90.0096 123.566 90.8918 123.748 91.6665 124.113C92.4412 124.477 93.05 124.998 93.4927 125.675C93.9354 126.346 94.1567 127.091 94.1567 127.912H91.6958C91.6958 127.169 91.4614 126.59 90.9927 126.173C90.5304 125.75 89.8664 125.539 89.0005 125.539C88.1932 125.539 87.5649 125.711 87.1157 126.056C86.673 126.401 86.4517 126.883 86.4517 127.501C86.4517 128.022 86.6925 128.458 87.1743 128.81C87.6561 129.155 88.4504 129.494 89.5571 129.826C90.6639 130.151 91.5526 130.526 92.2231 130.949C92.8937 131.365 93.3853 131.847 93.6978 132.394C94.0103 132.934 94.1665 133.569 94.1665 134.298C94.1665 135.483 93.7108 136.427 92.7993 137.13C91.8944 137.827 90.6639 138.175 89.1079 138.175C88.0793 138.175 87.132 137.986 86.2661 137.609C85.4067 137.225 84.7362 136.697 84.2544 136.027C83.7791 135.356 83.5415 134.575 83.5415 133.683H86.0122C86.0122 134.49 86.2791 135.115 86.813 135.558C87.3468 136.001 88.1118 136.222 89.1079 136.222C89.9673 136.222 90.6118 136.05 91.0415 135.705C91.4777 135.353 91.6958 134.891 91.6958 134.318ZM106.608 125.753H102.174V137.98H99.7231V125.753H95.3286V123.761H106.608V125.753ZM116.793 131.632H110.954V136.007H117.78V137.98H108.483V123.761H117.711V125.753H110.954V129.679H116.793V131.632ZM125.016 132.501H122.262V137.98H119.792V123.761H124.792C126.432 123.761 127.698 124.129 128.59 124.865C129.482 125.6 129.928 126.665 129.928 128.058C129.928 129.009 129.697 129.806 129.235 130.451C128.779 131.089 128.141 131.58 127.321 131.925L130.514 137.853V137.98H127.868L125.016 132.501ZM122.262 130.519H124.801C125.635 130.519 126.286 130.311 126.754 129.894C127.223 129.471 127.458 128.895 127.458 128.166C127.458 127.404 127.239 126.815 126.803 126.398C126.374 125.981 125.729 125.766 124.87 125.753H122.262V130.519ZM74.4009 146.761H76.8618V156.732C76.8618 158.093 76.4354 159.173 75.5825 159.974C74.7362 160.775 73.6164 161.175 72.2231 161.175C70.7388 161.175 69.5929 160.801 68.7856 160.052C67.9784 159.304 67.5747 158.262 67.5747 156.927H70.0356C70.0356 157.682 70.2212 158.252 70.5923 158.636C70.9699 159.014 71.5135 159.203 72.2231 159.203C72.8872 159.203 73.4146 158.985 73.8052 158.548C74.2023 158.106 74.4009 157.497 74.4009 156.722V146.761ZM90.0942 146.761V156.263C90.0942 157.774 89.6092 158.972 88.6392 159.857C87.6756 160.736 86.3898 161.175 84.7817 161.175C83.1541 161.175 81.8618 160.742 80.9048 159.876C79.9478 159.004 79.4692 157.796 79.4692 156.253V146.761H81.9302V156.273C81.9302 157.223 82.1711 157.949 82.6528 158.451C83.1346 158.952 83.8442 159.203 84.7817 159.203C86.6828 159.203 87.6333 158.2 87.6333 156.195V146.761H90.0942ZM97.9653 155.501H95.2114V160.98H92.7407V146.761H97.7407C99.3813 146.761 100.648 147.129 101.54 147.865C102.431 148.6 102.877 149.665 102.877 151.058C102.877 152.009 102.646 152.806 102.184 153.451C101.728 154.089 101.09 154.58 100.27 154.925L103.463 160.853V160.98H100.817L97.9653 155.501ZM95.2114 153.519H97.7505C98.5838 153.519 99.2349 153.311 99.7036 152.894C100.172 152.471 100.407 151.895 100.407 151.166C100.407 150.404 100.189 149.815 99.7524 149.398C99.3228 148.981 98.6782 148.766 97.8188 148.753H95.2114V153.519ZM109.391 153.5L112.663 146.761H115.397L110.631 155.746V160.98H108.151V155.746L103.375 146.761H106.12L109.391 153.5Z" fill="#00124D"/>
</svg>
