<svg width="431" height="218" viewBox="0 0 431 218" fill="none" xmlns="http://www.w3.org/2000/svg">
<path fill-rule="evenodd" clip-rule="evenodd" d="M244.599 177.395L203.713 217.093H197.842L140 177.467H168.395L202.692 205.921H206.753L241.476 177.399L244.599 177.395Z" fill="white"/>
<path fill-rule="evenodd" clip-rule="evenodd" d="M141.401 39.6984L182.288 0H188.159L246.001 39.6258H217.608L183.31 11.1718H179.249L144.526 39.6934L141.401 39.6984Z" fill="white"/>
<path d="M14.0977 121.98V141H5.20312V89.8125H24.7852C30.5039 89.8125 35.0391 91.3008 38.3906 94.2773C41.7656 97.2539 43.4531 101.191 43.4531 106.09C43.4531 111.105 41.8008 115.008 38.4961 117.797C35.2148 120.586 30.6094 121.98 24.6797 121.98H14.0977ZM14.0977 114.844H24.7852C27.9492 114.844 30.3633 114.105 32.0273 112.629C33.6914 111.129 34.5234 108.973 34.5234 106.16C34.5234 103.395 33.6797 101.191 31.9922 99.5508C30.3047 97.8867 27.9844 97.0312 25.0312 96.9844H14.0977V114.844ZM73.6523 129.082H53.8242L49.6758 141H40.4297L59.7656 89.8125H67.7461L87.1172 141H77.8359L73.6523 129.082ZM56.3203 121.91H71.1562L63.7383 100.676L56.3203 121.91ZM111.762 121.277H101.848V141H92.9531V89.8125H110.953C116.859 89.8125 121.418 91.1367 124.629 93.7852C127.84 96.4336 129.445 100.266 129.445 105.281C129.445 108.703 128.613 111.574 126.949 113.895C125.309 116.191 123.012 117.961 120.059 119.203L131.555 140.543V141H122.027L111.762 121.277ZM101.848 114.141H110.988C113.988 114.141 116.332 113.391 118.02 111.891C119.707 110.367 120.551 108.293 120.551 105.668C120.551 102.926 119.766 100.805 118.195 99.3047C116.648 97.8047 114.328 97.0312 111.234 96.9844H101.848V114.141ZM173.109 96.9844H157.148V141H148.324V96.9844H132.504V89.8125H173.109V96.9844ZM189.246 141H180.387V89.8125H189.246V141ZM239.238 124.336C238.723 129.797 236.707 134.062 233.191 137.133C229.676 140.18 225 141.703 219.164 141.703C215.086 141.703 211.488 140.742 208.371 138.82C205.277 136.875 202.887 134.121 201.199 130.559C199.512 126.996 198.633 122.859 198.562 118.148V113.367C198.562 108.539 199.418 104.285 201.129 100.605C202.84 96.9258 205.289 94.0898 208.477 92.0977C211.688 90.1055 215.391 89.1094 219.586 89.1094C225.234 89.1094 229.781 90.6445 233.227 93.7148C236.672 96.7852 238.676 101.121 239.238 106.723H230.379C229.957 103.043 228.879 100.395 227.145 98.7773C225.434 97.1367 222.914 96.3164 219.586 96.3164C215.719 96.3164 212.742 97.7344 210.656 100.57C208.594 103.383 207.539 107.52 207.492 112.98V117.516C207.492 123.047 208.477 127.266 210.445 130.172C212.438 133.078 215.344 134.531 219.164 134.531C222.656 134.531 225.281 133.746 227.039 132.176C228.797 130.605 229.91 127.992 230.379 124.336H239.238ZM256.605 141H247.746V89.8125H256.605V141ZM276.434 121.98V141H267.539V89.8125H287.121C292.84 89.8125 297.375 91.3008 300.727 94.2773C304.102 97.2539 305.789 101.191 305.789 106.09C305.789 111.105 304.137 115.008 300.832 117.797C297.551 120.586 292.945 121.98 287.016 121.98H276.434ZM276.434 114.844H287.121C290.285 114.844 292.699 114.105 294.363 112.629C296.027 111.129 296.859 108.973 296.859 106.16C296.859 103.395 296.016 101.191 294.328 99.5508C292.641 97.8867 290.32 97.0312 287.367 96.9844H276.434V114.844ZM335.988 129.082H316.16L312.012 141H302.766L322.102 89.8125H330.082L349.453 141H340.172L335.988 129.082ZM318.656 121.91H333.492L326.074 100.676L318.656 121.91ZM388.055 96.9844H372.094V141H363.27V96.9844H347.449V89.8125H388.055V96.9844ZM424.723 118.148H403.699V133.898H428.273V141H394.805V89.8125H428.027V96.9844H403.699V111.117H424.723V118.148Z" fill="#F2F2F2"/>
</svg>
