<svg width="239" height="218" viewBox="0 0 239 218" fill="none" xmlns="http://www.w3.org/2000/svg">
<path fill-rule="evenodd" clip-rule="evenodd" d="M152.599 177.395L111.713 217.093H105.842L48 177.467H76.3946L110.692 205.921H114.753L149.476 177.399L152.599 177.395Z" fill="white"/>
<path fill-rule="evenodd" clip-rule="evenodd" d="M49.4014 39.6984L90.2875 0H96.1588L154.001 39.6258H125.608L91.3103 11.1718H87.2488L52.5259 39.6934L49.4014 39.6984Z" fill="white"/>
<path d="M14.0977 114.98V134H5.20312V82.8125H24.7852C30.5039 82.8125 35.0391 84.3008 38.3906 87.2773C41.7656 90.2539 43.4531 94.1914 43.4531 99.0898C43.4531 104.105 41.8008 108.008 38.4961 110.797C35.2148 113.586 30.6094 114.98 24.6797 114.98H14.0977ZM14.0977 107.844H24.7852C27.9492 107.844 30.3633 107.105 32.0273 105.629C33.6914 104.129 34.5234 101.973 34.5234 99.1602C34.5234 96.3945 33.6797 94.1914 31.9922 92.5508C30.3047 90.8867 27.9844 90.0312 25.0312 89.9844H14.0977V107.844ZM70.0664 114.277H60.1523V134H51.2578V82.8125H69.2578C75.1641 82.8125 79.7227 84.1367 82.9336 86.7852C86.1445 89.4336 87.75 93.2656 87.75 98.2812C87.75 101.703 86.918 104.574 85.2539 106.895C83.6133 109.191 81.3164 110.961 78.3633 112.203L89.8594 133.543V134H80.332L70.0664 114.277ZM60.1523 107.141H69.293C72.293 107.141 74.6367 106.391 76.3242 104.891C78.0117 103.367 78.8555 101.293 78.8555 98.668C78.8555 95.9258 78.0703 93.8047 76.5 92.3047C74.9531 90.8047 72.6328 90.0312 69.5391 89.9844H60.1523V107.141ZM105.574 134H96.7148V82.8125H105.574V134ZM124.875 126.898H152.227V134H114.117V128.234L140.59 89.9844H114.293V82.8125H151.383V88.4375L124.875 126.898ZM189.809 111.148H168.785V126.898H193.359V134H159.891V82.8125H193.113V89.9844H168.785V104.117H189.809V111.148ZM227.355 120.816C227.355 118.566 226.559 116.832 224.965 115.613C223.395 114.395 220.547 113.164 216.422 111.922C212.297 110.68 209.016 109.297 206.578 107.773C201.914 104.844 199.582 101.023 199.582 96.3125C199.582 92.1875 201.258 88.7891 204.609 86.1172C207.984 83.4453 212.355 82.1094 217.723 82.1094C221.285 82.1094 224.461 82.7656 227.25 84.0781C230.039 85.3906 232.23 87.2656 233.824 89.7031C235.418 92.1172 236.215 94.8008 236.215 97.7539H227.355C227.355 95.082 226.512 92.9961 224.824 91.4961C223.16 89.9727 220.77 89.2109 217.652 89.2109C214.746 89.2109 212.484 89.832 210.867 91.0742C209.273 92.3164 208.477 94.0508 208.477 96.2773C208.477 98.1523 209.344 99.7227 211.078 100.988C212.812 102.23 215.672 103.449 219.656 104.645C223.641 105.816 226.84 107.164 229.254 108.688C231.668 110.188 233.438 111.922 234.562 113.891C235.688 115.836 236.25 118.121 236.25 120.746C236.25 125.012 234.609 128.41 231.328 130.941C228.07 133.449 223.641 134.703 218.039 134.703C214.336 134.703 210.926 134.023 207.809 132.664C204.715 131.281 202.301 129.383 200.566 126.969C198.855 124.555 198 121.742 198 118.531H206.895C206.895 121.438 207.855 123.688 209.777 125.281C211.699 126.875 214.453 127.672 218.039 127.672C221.133 127.672 223.453 127.051 225 125.809C226.57 124.543 227.355 122.879 227.355 120.816Z" fill="#F2F2F2"/>
</svg>
