<svg id="Layer_1" data-name="Layer 1" xmlns="http://www.w3.org/2000/svg" viewBox="0 0 59.93 67.63"><defs><style>.cls-1{fill:#f47a20;}</style></defs><path id="Path_866" data-name="Path 866" class="cls-1" d="M20.47,21.57h2.45a.62.62,0,1,0,0-1.23H20.47a.62.62,0,0,0,0,1.23Z"/><path id="Path_867" data-name="Path 867" class="cls-1" d="M26.6,20.34H25.37a.62.62,0,0,0,0,1.23H26.6a.62.62,0,0,0,0-1.23Z"/><path id="Path_868" data-name="Path 868" class="cls-1" d="M26.6,25.24H24.15a.62.62,0,0,0,0,1.23H26.6a.62.62,0,0,0,0-1.23Z"/><path id="Path_869" data-name="Path 869" class="cls-1" d="M21.7,25.24H20.47a.62.62,0,0,0,0,1.23H21.7a.62.62,0,0,0,0-1.23Z"/><path id="Path_870" data-name="Path 870" class="cls-1" d="M26.6,22.79H20.47a.62.62,0,0,0,0,1.23H26.6a.62.62,0,0,0,0-1.23Z"/><path id="Path_871" data-name="Path 871" class="cls-1" d="M38.84,30.14A2.44,2.44,0,0,0,38.23,35v1.31a.62.62,0,1,0,1.23,0h0V35a2.44,2.44,0,0,0-.62-4.81Zm0,3.67a1.23,1.23,0,1,1,1.23-1.22h0A1.22,1.22,0,0,1,38.84,33.81Z"/><path id="Path_872" data-name="Path 872" class="cls-1" d="M46.8,30.75a.44.44,0,0,0,0-.1V28.3a1.22,1.22,0,0,0-1.22-1.22H45V24.63A6,6,0,0,0,43.74,21V17.28a1.83,1.83,0,0,0-1.84-1.83H17.41a4.28,4.28,0,0,0-4.28,4.28V47.9a4.28,4.28,0,0,0,4.28,4.28H41.9a1.83,1.83,0,0,0,1.84-1.83h0V41a4.28,4.28,0,0,0,3-4,.39.39,0,0,0,0-.14.3.3,0,0,0,0-.1V33.92a.26.26,0,0,0,0-.21V30.86A.43.43,0,0,0,46.8,30.75Zm-3.06-3.67h-9.8V24.63a4.9,4.9,0,0,1,9.8,0ZM42.52,50.35a.62.62,0,0,1-.61.61H17.41a3.07,3.07,0,0,1,0-6.13h25.1v1.23H18a.61.61,0,1,0,0,1.22H42.52v1.23H18a.61.61,0,1,0,0,1.22H42.52Zm0-6.74H17.41a4.29,4.29,0,0,0-3.06,1.29V19.73a3.07,3.07,0,0,1,2.45-3v25a.61.61,0,1,0,1.22,0V16.67H41.9a.61.61,0,0,1,.62.61v2.47A6.11,6.11,0,0,0,34,20.93a6,6,0,0,0-1.24,3.7v2.45h-.64a1.23,1.23,0,0,0-1.22,1.23h0v8.57a4.28,4.28,0,0,0,4.28,4.28h7.37Zm0-3.67H35.15a3.07,3.07,0,0,1-3-2.45h1.18a.62.62,0,0,0,0-1.23H32.09V34.43h1.24a.62.62,0,0,0,0-1.23H32.09V31.37h1.24a.61.61,0,0,0,.61-.62.61.61,0,0,0-.61-.61H32.09V28.3H45.56v1.85h-1.2a.61.61,0,1,0,0,1.22h1.2v1.84h-1.2a.61.61,0,1,0,0,1.22h1.2v1.84h-1.2a.61.61,0,1,0,0,1.22H45.5a3.07,3.07,0,0,1-3,2.45Z"/></svg>