<svg id="Layer_1" data-name="Layer 1" xmlns="http://www.w3.org/2000/svg" viewBox="0 0 292.18 184.21"><defs><style>.cls-1{fill:#383477;}.cls-1,.cls-2,.cls-4{fill-rule:evenodd;}.cls-2,.cls-3{fill:#2b2a29;}.cls-4{fill:#969ea5;}</style></defs><g id="Group_829" data-name="Group 829"><path id="Path_201" data-name="Path 201" class="cls-1" d="M86.24,85.36H80.33V84.13a1.77,1.77,0,0,0-.23-1.08,1,1,0,0,0-.76-.23,1.12,1.12,0,0,0-.87.31,1.36,1.36,0,0,0-.29,1,2,2,0,0,0,.33,1.24,4.73,4.73,0,0,0,1.8,1c2.83,1.14,4.62,2.06,5.35,2.79a4.73,4.73,0,0,1,1.1,3.5,4.32,4.32,0,0,1-.61,2.58,4.55,4.55,0,0,1-2.36,1.4,13.14,13.14,0,0,1-4.08.56,12.74,12.74,0,0,1-4.37-.65A4.18,4.18,0,0,1,73,94.86,6,6,0,0,1,72.42,92V90.93h5.91v2a2,2,0,0,0,.24,1.19,1.26,1.26,0,0,0,.9.26,1.19,1.19,0,0,0,.93-.33,1.4,1.4,0,0,0,.32-1,2.32,2.32,0,0,0-.59-1.9,20.27,20.27,0,0,0-3-1.5A31.36,31.36,0,0,1,74,88.12a3.76,3.76,0,0,1-1.28-1.32,4.13,4.13,0,0,1-.5-2.15,4.35,4.35,0,0,1,.71-2.76,4.72,4.72,0,0,1,2.33-1.36,12.92,12.92,0,0,1,3.86-.5,14.3,14.3,0,0,1,4.22.54,4.22,4.22,0,0,1,2.31,1.36,5,5,0,0,1,.58,2.77Zm15.33-5v3.29H97.8V96.81H91.43V83.67H87.67V80.38Zm1.46,0h4.5a51.68,51.68,0,0,1,6.09.24,4.57,4.57,0,0,1,2.6,1.2,4.05,4.05,0,0,1,1,3.05,3.51,3.51,0,0,1-.71,2.58,4.73,4.73,0,0,1-2.8.79,5.88,5.88,0,0,1,2.54.84,2.46,2.46,0,0,1,.8,1,9.83,9.83,0,0,1,.16,2.42v4.34h-5.9V91.36a2.67,2.67,0,0,0-.32-1.64,2.54,2.54,0,0,0-1.62-.31v7.41H103Zm6.36,2.81v3.66a4.24,4.24,0,0,0,1.5-.19c.29-.14.44-.57.44-1.29v-.9a1.11,1.11,0,0,0-.43-1,3.28,3.28,0,0,0-1.51-.25Zm24.77-2.81v11A13.58,13.58,0,0,1,134,94a3.23,3.23,0,0,1-1.08,1.56,5.94,5.94,0,0,1-2.36,1.2,12.78,12.78,0,0,1-3.43.41,13.63,13.63,0,0,1-3.86-.49,5.92,5.92,0,0,1-2.51-1.27,2.91,2.91,0,0,1-1-1.64,26.16,26.16,0,0,1-.16-3.65V80.38H126V92.7a3.64,3.64,0,0,0,.16,1.39.8.8,0,0,0,.71.29c.4,0,.66-.11.77-.33a3.92,3.92,0,0,0,.18-1.56V80.38Zm17.31,7.17h-6.36V84.69a3.33,3.33,0,0,0-.21-1.56c-.13-.21-.43-.31-.89-.31s-.86.12-1,.37a4.1,4.1,0,0,0-.21,1.63v7.63A3.76,3.76,0,0,0,143,94c.14.25.46.37,1,.37s.78-.12.93-.37a4,4,0,0,0,.22-1.71V90.23h6.36v.64a8.61,8.61,0,0,1-.54,3.62,4.51,4.51,0,0,1-2.37,1.86,11.13,11.13,0,0,1-4.52.8,13.13,13.13,0,0,1-4.61-.68A4.08,4.08,0,0,1,137,94.6a8.64,8.64,0,0,1-.59-3.63v-4.8a14.81,14.81,0,0,1,.18-2.66,3.26,3.26,0,0,1,1.07-1.71,6.42,6.42,0,0,1,2.5-1.29,13,13,0,0,1,3.67-.48,12.64,12.64,0,0,1,4.64.73,4.43,4.43,0,0,1,2.4,1.83,7.56,7.56,0,0,1,.57,3.39Zm15.1-7.17v3.29H162.8V96.81h-6.37V83.67h-3.76V80.38Zm15.92,0v11A12.84,12.84,0,0,1,182.3,94a3.14,3.14,0,0,1-1.07,1.56,5.94,5.94,0,0,1-2.36,1.2,12.78,12.78,0,0,1-3.43.41,13.7,13.7,0,0,1-3.87-.49,5.94,5.94,0,0,1-2.5-1.27,3,3,0,0,1-1-1.64,27.78,27.78,0,0,1-.15-3.65V80.38h6.37V92.7a3.64,3.64,0,0,0,.16,1.39.8.8,0,0,0,.71.29c.4,0,.66-.11.77-.33a3.92,3.92,0,0,0,.18-1.56V80.38Zm2.46,0h4.5a51.59,51.59,0,0,1,6.09.24,4.57,4.57,0,0,1,2.6,1.2,4,4,0,0,1,1,3.05,3.51,3.51,0,0,1-.71,2.58,4.73,4.73,0,0,1-2.8.79,5.88,5.88,0,0,1,2.54.84,2.38,2.38,0,0,1,.8,1,9.84,9.84,0,0,1,.17,2.42v4.34h-5.91V91.36a2.67,2.67,0,0,0-.32-1.64,2.54,2.54,0,0,0-1.62-.31v7.41h-6.36Zm6.36,2.81v3.66a4.21,4.21,0,0,0,1.5-.19c.29-.14.44-.57.44-1.29v-.9a1.09,1.09,0,0,0-.44-1,3.34,3.34,0,0,0-1.5-.24Zm21.29-2.81,3.65,16.43h-6.52l-.31-3h-2.29l-.37,3h-6.59l3.23-16.43ZM209.23,91q-.48-2.79-1-6.89c-.65,3.14-1.05,5.43-1.21,6.89Z"/><path id="Path_202" data-name="Path 202" class="cls-2" d="M141.5,55.6h7.05l6.31,16.5h-6.44L145,62.16l-3.39,9.94H135.2Zm-20.57,0h16v4.82h-4.64V72.1h-6.58V60.42h-4.78Zm53,0H181l6.3,16.5h-6.44l-3.39-9.94-3.39,9.94h-6.44Zm-20.58,0h16v4.82h-4.64V72.1h-6.58V60.42H153.4Z"/><rect id="Rectangle_61" data-name="Rectangle 61" class="cls-3" x="113.6" y="102.63" width="102.64" height="0.43"/><rect id="Rectangle_62" data-name="Rectangle 62" class="cls-3" x="113.41" y="115.65" width="102.83" height="0.43"/><path id="Path_203" data-name="Path 203" class="cls-2" d="M113.63,100.46,97.78,115.85H95.5L73.08,100.49h11l13.29,11H99l13.46-11Z"/><path id="Path_204" data-name="Path 204" class="cls-4" d="M113.08,100.43,97.24,115.82H95L72.54,100.46h11l13.29,11h1.57l13.46-11.06Z"/><path id="Path_205" data-name="Path 205" class="cls-2" d="M75.9,124.49v4.11h-.79v-4.11H72.94v-.64h5.13v.64Z"/><path id="Path_206" data-name="Path 206" class="cls-2" d="M79.15,128.6v-3.9h.73v1.57H83V124.7h.74v3.9H83v-1.74H79.88v1.74Z"/><path id="Path_207" data-name="Path 207" class="cls-2" d="M85.6,128.6v-3.91h3.92v.58H86.33v1h1.93v.59H86.33V128h3.23v.57Z"/><path id="Path_208" data-name="Path 208" class="cls-2" d="M98,125.28H95.23v1h2.5a1.1,1.1,0,0,1,.75.19,1,1,0,0,1,.2.73v.47a1,1,0,0,1-.2.73,1.1,1.1,0,0,1-.75.19H95.36a1.13,1.13,0,0,1-.76-.19,1.05,1.05,0,0,1-.19-.73v-.11l.67-.14V128H98v-1.1H95.51a1.13,1.13,0,0,1-.76-.19,1.05,1.05,0,0,1-.19-.73v-.37a1.05,1.05,0,0,1,.19-.73,1.08,1.08,0,0,1,.76-.2h2.17a1.1,1.1,0,0,1,.73.19.82.82,0,0,1,.22.67v.09l-.67.15Z"/><path id="Path_209" data-name="Path 209" class="cls-2" d="M100.45,128.6v-3.9h.74v1.57h3.1V124.7H105v3.9h-.74v-1.74h-3.11v1.74Z"/><path id="Path_210" data-name="Path 210" class="cls-2" d="M106.27,128.6l2.25-3.91h.67l2.31,3.91h-.8l-.51-.91H107.5l-.5.91Zm1.54-1.47h2.07l-1-1.86Z"/><path id="Path_211" data-name="Path 211" class="cls-2" d="M115.7,125.27h-2.23v1.23h2.23c.29,0,.44-.12.44-.37v-.5c0-.24-.15-.37-.44-.37m-3,3.34v-3.91H116c.57,0,.85.25.85.76v.87c0,.5-.28.75-.85.75h-2.56v1.53Z"/><path id="Path_212" data-name="Path 212" class="cls-2" d="M118.38,128.6v-3.91h3.92v.58h-3.19v1H121v.59h-1.92V128h3.23v.57Z"/><path id="Path_213" data-name="Path 213" class="cls-2" d="M128,128h3.25v-2.74H128Zm-.74-2.38a1,1,0,0,1,.2-.73,1.08,1.08,0,0,1,.76-.2H131a1,1,0,0,1,.75.2,1,1,0,0,1,.2.73v2.05a1,1,0,0,1-.2.73,1.1,1.1,0,0,1-.75.19h-2.81a1.17,1.17,0,0,1-.77-.18,1.09,1.09,0,0,1-.19-.74Z"/><path id="Path_214" data-name="Path 214" class="cls-2" d="M133.72,128.6v-3.91h3.88v.58h-3.14v1.21h1.77v.57h-1.77v1.55Z"/><path id="Path_215" data-name="Path 215" class="cls-2" d="M144.17,125.27v3.33h-.73v-3.33H141.6v-.58H146v.58Z"/><path id="Path_216" data-name="Path 216" class="cls-2" d="M147.19,128.6v-3.9h.74v1.57H151V124.7h.73v3.9H151v-1.74h-3.11v1.74Z"/><rect id="Rectangle_63" data-name="Rectangle 63" class="cls-3" x="153.63" y="124.7" width="0.74" height="3.9"/><path id="Path_217" data-name="Path 217" class="cls-2" d="M156.84,125.48a4,4,0,0,1,0,.7v2.42h-.68v-3.91h.56l2.86,2.56a2.38,2.38,0,0,1,.47.53,4.4,4.4,0,0,1-.06-.73v-2.36h.68v3.91h-.51L157.3,126a2.12,2.12,0,0,1-.46-.53"/><path id="Path_218" data-name="Path 218" class="cls-2" d="M166.32,125.28h-3.08V128h3.08V127h-1.59v-.53h2.33v1.26a1,1,0,0,1-.2.73,1.13,1.13,0,0,1-.76.19h-2.63a1.17,1.17,0,0,1-.77-.19,1.05,1.05,0,0,1-.19-.73v-2.05a1,1,0,0,1,.2-.73,1.07,1.07,0,0,1,.75-.2h2.64a1.09,1.09,0,0,1,.74.19.84.84,0,0,1,.22.68v.11l-.74.13Z"/><path id="Path_219" data-name="Path 219" class="cls-2" d="M172.19,125.28h-2.73v1H172a1.12,1.12,0,0,1,.75.19,1.06,1.06,0,0,1,.2.73v.47a1.06,1.06,0,0,1-.2.73,1.12,1.12,0,0,1-.75.19h-2.37a1.13,1.13,0,0,1-.76-.19,1,1,0,0,1-.2-.73v-.11l.67-.14V128h2.94v-1.1h-2.51a1.12,1.12,0,0,1-.75-.19,1.05,1.05,0,0,1-.19-.73v-.37a1.09,1.09,0,0,1,.19-.74,1.12,1.12,0,0,1,.75-.19h2.17a1.15,1.15,0,0,1,.74.19.82.82,0,0,1,.22.67v.09l-.67.15Z"/><path id="Path_220" data-name="Path 220" class="cls-2" d="M180.07,125.27v3.33h-.74v-3.33h-1.84v-.58h4.43v.58Z"/><path id="Path_221" data-name="Path 221" class="cls-2" d="M183.73,128H187v-2.74h-3.25Zm-.73-2.38a1,1,0,0,1,.2-.73,1.07,1.07,0,0,1,.75-.2h2.82a1.07,1.07,0,0,1,.75.2,1,1,0,0,1,.2.73v2.05a1,1,0,0,1-.2.73,1.12,1.12,0,0,1-.75.19H184a1.15,1.15,0,0,1-.76-.18,1.09,1.09,0,0,1-.19-.74Z"/><path id="Path_222" data-name="Path 222" class="cls-2" d="M196.38,125.28h-2.72V128h2.72v-.93l.74.14v.46a1,1,0,0,1-.2.73,1.13,1.13,0,0,1-.76.19h-2.29a1.11,1.11,0,0,1-.75-.18,1.09,1.09,0,0,1-.19-.74v-2.05a.75.75,0,0,1,.94-.93h2.29a1,1,0,0,1,.75.19,1,1,0,0,1,.2.74V126l-.73.12Z"/><path id="Path_223" data-name="Path 223" class="cls-2" d="M199.4,128h3.25v-2.74H199.4Zm-.74-2.38a1,1,0,0,1,.2-.73,1.07,1.07,0,0,1,.75-.2h2.82a1.07,1.07,0,0,1,.75.2,1,1,0,0,1,.2.73v2.05a1,1,0,0,1-.2.73,1.12,1.12,0,0,1-.75.19h-2.82a1.15,1.15,0,0,1-.76-.18,1.09,1.09,0,0,1-.19-.74Z"/><path id="Path_224" data-name="Path 224" class="cls-2" d="M205.75,125.42l0,.55v2.63h-.6v-3.91h.6l1.94,2.54,1.79-2.54h.68v3.91h-.68V126a3.31,3.31,0,0,1,0-.55,2.31,2.31,0,0,1-.26.55l-1.5,2h-.19L206,126a1.66,1.66,0,0,1-.29-.56"/><path id="Path_225" data-name="Path 225" class="cls-2" d="M212.06,128.6v-3.91H216v.58H212.8v1h1.92v.59H212.8V128H216v.57Z"/><path id="Path_226" data-name="Path 226" class="cls-2" d="M216.84,75.74a2.88,2.88,0,0,1,.92.12.84.84,0,0,1,.52.85.72.72,0,0,1-.33.66,1.25,1.25,0,0,1-.49.17.81.81,0,0,1,.58.33.88.88,0,0,1,.18.52v.24a2.18,2.18,0,0,0,0,.25.57.57,0,0,0,0,.18l0,0h-.55v-.45a.83.83,0,0,0-.32-.77,1.64,1.64,0,0,0-.66-.11h-.46V79.1h-.59V75.74Zm.63.53a1.42,1.42,0,0,0-.71-.12h-.5v1.22h.54a1.52,1.52,0,0,0,.56-.08.61.61,0,0,0,.11-1Zm1.6,3.33a3.07,3.07,0,1,1,0-4.33,3.11,3.11,0,0,1,.9,2.16,3,3,0,0,1-.91,2.17Zm-4-4a2.67,2.67,0,0,0,0,3.73,2.61,2.61,0,0,0,3.71,0h0a2.66,2.66,0,0,0,0-3.73,2.61,2.61,0,0,0-3.7,0l0,0Z"/><path id="Path_227" data-name="Path 227" class="cls-3" d="M113.66,110.45h.5a1.29,1.29,0,0,0,.41,1,1.67,1.67,0,0,0,1.14.36,1.59,1.59,0,0,0,1-.29,1.11,1.11,0,0,0,.11-1.52,2.62,2.62,0,0,0-1-.44l-.52-.13a2.53,2.53,0,0,1-1.17-.55,1.3,1.3,0,0,1-.32-.94,1.27,1.27,0,0,1,.49-1.07,1.9,1.9,0,0,1,1.3-.4,2,2,0,0,1,1.36.44,1.63,1.63,0,0,1,.5,1.23h-.51a1.17,1.17,0,0,0-.37-.9,1.72,1.72,0,0,0-1.93,0,.91.91,0,0,0-.33.77.78.78,0,0,0,.21.6,1.6,1.6,0,0,0,.72.34l.64.16a3.13,3.13,0,0,1,1.34.6,1.36,1.36,0,0,1,.38,1,1.44,1.44,0,0,1-.5,1.17,2.1,2.1,0,0,1-1.39.42,2.22,2.22,0,0,1-1.51-.46,1.65,1.65,0,0,1-.53-1.32Z"/><path id="Path_228" data-name="Path 228" class="cls-3" d="M120.53,112.33V107h-1.82v-.48h4.18V107h-1.81v5.37Z"/><path id="Path_229" data-name="Path 229" class="cls-3" d="M124.3,112.33v-5.85h2a6.44,6.44,0,0,1,1,0,1.66,1.66,0,0,1,.53.18,1.37,1.37,0,0,1,.53.54,1.53,1.53,0,0,1,.19.78,1.62,1.62,0,0,1-.24.91,1.36,1.36,0,0,1-.7.53.91.91,0,0,1,.51.37,2.59,2.59,0,0,1,.22,1l.07.88a1.37,1.37,0,0,0,.07.34.47.47,0,0,0,.12.2v.08h-.6a1.13,1.13,0,0,1-.08-.24c0-.12,0-.24,0-.36l-.06-.78a1.76,1.76,0,0,0-.29-1,1.34,1.34,0,0,0-.91-.22h-1.71v2.62Zm.53-3.1h1.56a1.92,1.92,0,0,0,1.17-.28,1.3,1.3,0,0,0,.25-1.42,1,1,0,0,0-.32-.37,1.09,1.09,0,0,0-.39-.15,3.78,3.78,0,0,0-.75-.05h-1.52Z"/><path id="Path_230" data-name="Path 230" class="cls-3" d="M130.2,106.48h.53v3.68a2.07,2.07,0,0,0,.4,1.41,2.1,2.1,0,0,0,2.58,0,2.07,2.07,0,0,0,.4-1.41v-3.68h.53v3.76a2.25,2.25,0,0,1-.56,1.68,2.72,2.72,0,0,1-3.33,0,2.34,2.34,0,0,1-.56-1.68Z"/><path id="Path_231" data-name="Path 231" class="cls-3" d="M140.68,110.42h.53a2.14,2.14,0,0,1-.69,1.52,2.41,2.41,0,0,1-1.65.55,2.28,2.28,0,0,1-1.86-.83,3.41,3.41,0,0,1-.68-2.27,3.33,3.33,0,0,1,.69-2.25,2.31,2.31,0,0,1,1.87-.82,2.52,2.52,0,0,1,1.61.51,1.83,1.83,0,0,1,.65,1.36h-.52a1.46,1.46,0,0,0-.54-1,1.84,1.84,0,0,0-1.2-.37,1.79,1.79,0,0,0-1.48.68,3,3,0,0,0-.52,1.9,3.12,3.12,0,0,0,.53,1.93,2,2,0,0,0,2.74.28,1.69,1.69,0,0,0,.52-1.18"/><path id="Path_232" data-name="Path 232" class="cls-3" d="M144.15,112.33V107h-1.81v-.48h4.18V107H144.7v5.37Z"/><path id="Path_233" data-name="Path 233" class="cls-3" d="M147.88,106.48h.54v3.68a2,2,0,0,0,.4,1.41,2.09,2.09,0,0,0,2.57,0,2,2,0,0,0,.4-1.41v-3.68h.54v3.76a2.34,2.34,0,0,1-.56,1.68,2.72,2.72,0,0,1-3.33,0,2.25,2.25,0,0,1-.56-1.68Z"/><path id="Path_234" data-name="Path 234" class="cls-3" d="M154.27,112.33v-5.85h1.95a6.44,6.44,0,0,1,1,0,1.66,1.66,0,0,1,.53.18,1.37,1.37,0,0,1,.53.54,1.64,1.64,0,0,1,.19.78,1.62,1.62,0,0,1-.24.91,1.36,1.36,0,0,1-.7.53.91.91,0,0,1,.51.37,2.59,2.59,0,0,1,.22,1l.07.88a1.37,1.37,0,0,0,.07.34.47.47,0,0,0,.12.2v.08h-.6a1.13,1.13,0,0,1-.08-.24c0-.12,0-.24,0-.36l-.07-.78a1.68,1.68,0,0,0-.28-1,1.34,1.34,0,0,0-.91-.22H154.8v2.62Zm.53-3.1h1.56a1.92,1.92,0,0,0,1.17-.28,1.3,1.3,0,0,0,.25-1.42,1,1,0,0,0-.32-.37,1.17,1.17,0,0,0-.39-.15,3.78,3.78,0,0,0-.75-.05H154.8Z"/><path id="Path_235" data-name="Path 235" class="cls-3" d="M159.51,112.33l2.23-5.85h.64l2.22,5.85H164l-.67-1.8h-2.62l-.67,1.8Zm1.41-2.27h2.27l-1.14-3Z"/><path id="Path_236" data-name="Path 236" class="cls-3" d="M165.89,112.33v-5.85h.56v5.37h3v.48Z"/><path id="Path_237" data-name="Path 237" class="cls-3" d="M173.36,110.56h.54a1.37,1.37,0,0,0,.44,1.07,1.75,1.75,0,0,0,1.2.38,1.71,1.71,0,0,0,1.08-.31,1,1,0,0,0,.39-.85,1,1,0,0,0-.28-.76,2.54,2.54,0,0,0-1.09-.47l-.55-.14a2.6,2.6,0,0,1-1.24-.59,1.35,1.35,0,0,1-.35-1,1.43,1.43,0,0,1,.52-1.14,2.17,2.17,0,0,1,1.39-.43,2.07,2.07,0,0,1,1.44.47,1.71,1.71,0,0,1,.53,1.31h-.54a1.28,1.28,0,0,0-.39-1,1.86,1.86,0,0,0-2.06,0,1,1,0,0,0-.35.82.87.87,0,0,0,.23.63,1.59,1.59,0,0,0,.76.37l.69.17a3.34,3.34,0,0,1,1.42.65,1.42,1.42,0,0,1,.41,1.07A1.56,1.56,0,0,1,177,112a2.22,2.22,0,0,1-1.47.45,2.39,2.39,0,0,1-1.61-.49,1.77,1.77,0,0,1-.57-1.4Z"/><path id="Path_238" data-name="Path 238" class="cls-3" d="M179.25,112.33v-5.85h3.83V107h-3.3v2.13h3v.46h-3v2.3h3.4v.48Z"/><path id="Path_239" data-name="Path 239" class="cls-3" d="M188.94,110.42h.53a2.13,2.13,0,0,1-.68,1.52,2.45,2.45,0,0,1-1.66.55,2.28,2.28,0,0,1-1.86-.83,4.07,4.07,0,0,1,0-4.52,2.34,2.34,0,0,1,1.87-.82,2.52,2.52,0,0,1,1.61.51,1.83,1.83,0,0,1,.65,1.36h-.52a1.46,1.46,0,0,0-.54-1,1.84,1.84,0,0,0-1.2-.37,1.79,1.79,0,0,0-1.48.68,3,3,0,0,0-.52,1.9,3.12,3.12,0,0,0,.53,1.93,2,2,0,0,0,2.74.28,1.69,1.69,0,0,0,.52-1.18"/><path id="Path_240" data-name="Path 240" class="cls-3" d="M192.42,112.33V107H190.6v-.48h4.18V107H193v5.37Z"/><rect id="Rectangle_64" data-name="Rectangle 64" class="cls-3" x="196.22" y="106.48" width="0.55" height="5.85"/><path id="Path_241" data-name="Path 241" class="cls-3" d="M198.53,109.41a3.31,3.31,0,0,1,.73-2.25,2.71,2.71,0,0,1,3.84-.07.23.23,0,0,1,.07.07,3.84,3.84,0,0,1,0,4.5,2.72,2.72,0,0,1-3.85.06l-.06-.06a3.36,3.36,0,0,1-.73-2.26m.56,0a2.93,2.93,0,0,0,.57,1.9,2.07,2.07,0,0,0,2.93.18,1.53,1.53,0,0,0,.18-.18,3.43,3.43,0,0,0,0-3.81,2.06,2.06,0,0,0-2.9-.2,2,2,0,0,0-.2.21,2.91,2.91,0,0,0-.58,1.91Z"/><path id="Path_242" data-name="Path 242" class="cls-3" d="M205.62,112.33v-5.85h.59l3.31,5v-5H210v5.85h-.6l-3.29-5v5Z"/><path id="Path_243" data-name="Path 243" class="cls-3" d="M211.75,110.56h.53a1.4,1.4,0,0,0,.44,1.07,1.76,1.76,0,0,0,1.21.38,1.7,1.7,0,0,0,1.07-.31,1,1,0,0,0,.39-.85,1,1,0,0,0-.27-.76,2.59,2.59,0,0,0-1.09-.47l-.56-.14a2.6,2.6,0,0,1-1.24-.59,1.35,1.35,0,0,1-.34-1,1.37,1.37,0,0,1,.52-1.14,2.15,2.15,0,0,1,1.39-.43,2.1,2.1,0,0,1,1.44.47,1.74,1.74,0,0,1,.53,1.31h-.55a1.25,1.25,0,0,0-.39-1,1.86,1.86,0,0,0-2.06,0,1,1,0,0,0-.35.82.87.87,0,0,0,.23.63,1.59,1.59,0,0,0,.76.37l.69.17a3.29,3.29,0,0,1,1.42.65,1.42,1.42,0,0,1,.41,1.07,1.56,1.56,0,0,1-.54,1.24,2.22,2.22,0,0,1-1.47.45,2.39,2.39,0,0,1-1.61-.49,1.73,1.73,0,0,1-.56-1.4Z"/><path id="Path_244" data-name="Path 244" class="cls-2" d="M72.54,76.44,88.39,61.05h2.27l22.42,15.36h-11l-13.3-11H87.21L73.75,76.44Z"/><path id="Path_245" data-name="Path 245" class="cls-4" d="M73.08,76.47,88.93,61.08h2.28l22.42,15.36h-11l-13.29-11H87.75L74.29,76.47Z"/></g></svg>