<svg id="Layer_1" data-name="Layer 1" xmlns="http://www.w3.org/2000/svg" xmlns:xlink="http://www.w3.org/1999/xlink" viewBox="0 0 421.08 237.63"><defs><style>.cls-1{fill:none;}.cls-2{fill:#0f70b8;}.cls-3{fill:#1a1818;}.cls-4{clip-path:url(#clip-path);}.cls-5{fill:#348fce;}.cls-6{fill:#f57e20;}.cls-7{fill:#46a747;}.cls-8{fill:#e61e26;}</style><clipPath id="clip-path"><path class="cls-1" d="M100.43,143.91l.76-5.21H96.94l.7-5H92.42l-.7,5h-3.2l.7-5H84l-.69,5H79.14l-.75,5.22h4.2l-.42,3H78l-.75,5.21h4.24l-.69,5H86l.69-5h3.2l-.69,5h5.21l.69-5h4.17l.75-5.21H95.8l.42-3h4.21m-9.84,3h-3.2l.42-3H91Z"/></clipPath></defs><g id="Group_205" data-name="Group 205"><path id="Path_128" data-name="Path 128" class="cls-2" d="M230.24,94.32c-4.31-1.68-6.13-2.6-6.13-4.72,0-1.66,1.56-3.19,4.81-3.19A15.18,15.18,0,0,1,235.79,88l1.66-6A19.14,19.14,0,0,0,229,80.33c-7.75,0-12.51,4.27-12.51,9.91,0,4.86,3.63,7.9,9.13,9.87,4,1.37,5.55,2.6,5.55,4.62,0,2.2-1.82,3.62-5.25,3.62a18.82,18.82,0,0,1-8.29-2.06l-1.54,6.13a21.39,21.39,0,0,0,9.37,2.07c9.09,0,13.31-4.72,13.31-10.27,0-4.71-2.7-7.75-8.54-9.9"/><path id="Path_129" data-name="Path 129" class="cls-2" d="M241.38,87.16h8.93V114h7.47V87.16h9V80.87H241.38v6.29"/><path id="Path_130" data-name="Path 130" class="cls-2" d="M278.29,100h12.18V93.87H278.29V87h12.92V80.86H270.83V114h21.06v-6.13h-13.6V100"/><path id="Path_131" data-name="Path 131" class="cls-2" d="M304.49,100h12.17V93.87H304.49V87h12.92V80.86H297.05V114h21.06v-6.13H304.49V100"/><path id="Path_132" data-name="Path 132" class="cls-2" d="M330.71,107.66V80.87h-7.47V114h20.63v-6.3H330.71"/><path id="Path_133" data-name="Path 133" class="cls-2" d="M107.33,90.7V80.87H77.22V90.7h8.67v23.23H98.68V90.7h8.65"/><path id="Path_134" data-name="Path 134" class="cls-2" d="M170.11,90.7V80.87H140V90.7h8.66v23.23h12.79V90.7h8.66"/><path id="Path_135" data-name="Path 135" class="cls-2" d="M117.09,113.93l6.66-16.74,6.64,16.74h12.86l-13-33.06h-13l-13,33.06h12.84"/><path id="Path_136" data-name="Path 136" class="cls-2" d="M179.24,113.93l6.66-16.74,6.64,16.74H205.4l-13-33.06h-13l-13,33.06h12.85"/><path id="Path_137" data-name="Path 137" class="cls-3" d="M122.77,157.05h-2.84l-3.54-18.27-3.5,18.27h-2.84l-3.92-22.7h3l2.32,18.27,3.38-18.27h3.07l3.44,18.27,2.3-18.27h3l-3.89,22.7"/><path id="Path_138" data-name="Path 138" class="cls-3" d="M160.81,157.05a5.54,5.54,0,0,1-3.57-1,4.51,4.51,0,0,1-1.47-3.7v-18h2.58v17.89a2.18,2.18,0,0,0,1.84,2.48,2.14,2.14,0,0,0,.62,0v2.33"/><path id="Path_139" data-name="Path 139" class="cls-3" d="M171,156a4.49,4.49,0,0,1-3.38,1.31,4.4,4.4,0,0,1-3.31-1.27,5,5,0,0,1-1.4-3.64h2.55a2.79,2.79,0,0,0,.7,2,1.91,1.91,0,0,0,1.47.57,2.12,2.12,0,0,0,1.58-.62,2.26,2.26,0,0,0,.62-1.64A3,3,0,0,0,168,150L165.85,149a5.36,5.36,0,0,1-2.27-1.92,4.29,4.29,0,0,1-.51-2.17,4.48,4.48,0,0,1,1.31-3.3,4.54,4.54,0,0,1,3.32-1.29,4.36,4.36,0,0,1,3.36,1.31,5,5,0,0,1,1.2,3.51h-2.55a2.88,2.88,0,0,0-.6-2,1.86,1.86,0,0,0-1.4-.57,1.94,1.94,0,0,0-1.49.59,2.18,2.18,0,0,0-.56,1.54,2.49,2.49,0,0,0,.3,1.23,3.32,3.32,0,0,0,1.36,1.07l2.1,1.05a5.85,5.85,0,0,1,2.34,1.9,5.12,5.12,0,0,1-.71,6.08"/><path id="Path_140" data-name="Path 140" class="cls-3" d="M202.6,157.05h-2.74V140.88l-3.6,10.62h-1.69L191,141.13v15.92h-2.75v-22.7h2.59L195.46,147,200,134.35h2.58v22.7"/><path id="Path_141" data-name="Path 141" class="cls-3" d="M227.25,157.05l-3.16-7.78-1.79,2.84v4.94h-2.58v-22.7h2.58v14l4.69-7.85h2.74l-4,6.45,4.4,10.07h-2.87"/><path id="Path_142" data-name="Path 142" class="cls-3" d="M254.67,136.8h-3.8v20.25h-2.74V136.8h-3.82v-2.46h10.36v2.46"/><path id="Path_143" data-name="Path 143" class="cls-3" d="M283,157.05h-2.58V144.9c0-1.53-.65-2.3-1.94-2.29s-2,.77-2,2.29v12.15H274V144.9a2.38,2.38,0,0,0-.56-1.7,1.82,1.82,0,0,0-1.42-.59c-1.3,0-1.94.76-1.94,2.29v12.15h-2.59V140.53h2.49v1.27a2.93,2.93,0,0,1,1-1,3.24,3.24,0,0,1,1.79-.51,3.55,3.55,0,0,1,3.15,1.72,5.58,5.58,0,0,1,1.31-1.21,3.57,3.57,0,0,1,1.88-.51,3.78,3.78,0,0,1,3,1.21,5.07,5.07,0,0,1,1,3.41V157"/><path id="Path_144" data-name="Path 144" class="cls-3" d="M305.06,142.76h-.77a2.83,2.83,0,0,0-3,2.64,2.54,2.54,0,0,0,0,.39v11.26h-2.58V140.53h2.49v1.75a3.6,3.6,0,0,1,1.15-1.18,4.66,4.66,0,0,1,2.71-.83v2.49"/><path id="Path_145" data-name="Path 145" class="cls-3" d="M314.53,142.76h-.76a2.82,2.82,0,0,0-3,2.64,2.54,2.54,0,0,0,0,.39v11.26h-2.59V140.53h2.49v1.75a3.7,3.7,0,0,1,1.15-1.18,4.66,4.66,0,0,1,2.71-.83v2.49"/><path id="Path_146" data-name="Path 146" class="cls-3" d="M340.4,157.05h-2.62L335.55,145l-2.17,12.09h-2.61l-3.41-16.52h2.93L332.17,153l2.2-12.44h2.33L339,153l1.92-12.44h2.94l-3.48,16.52"/><path id="Path_147" data-name="Path 147" class="cls-3" d="M235.7,154.27a1.79,1.79,0,0,0,1.45.7,1.9,1.9,0,0,0,1.48-.63,2.73,2.73,0,0,0,.57-1.88h2.59a5.34,5.34,0,0,1-1.32,3.63,4.28,4.28,0,0,1-3.31,1.21,4.38,4.38,0,0,1-3.27-1.27c-1-1-1.48-3.42-1.48-7.24a27.31,27.31,0,0,1,.26-4.43,4.89,4.89,0,0,1,1.18-2.81,4.32,4.32,0,0,1,3.25-1.28,4.22,4.22,0,0,1,3.25,1.28,6,6,0,0,1,1.24,3.16,40.61,40.61,0,0,1,.2,4.68H235c0,2.66.24,4.29.71,4.88m1.4-11.7a1.87,1.87,0,0,0-1.5.77q-.6.85-.6,4.11h4.2c0-2.27-.2-3.66-.6-4.14a1.88,1.88,0,0,0-1.5-.74Z"/><path id="Path_148" data-name="Path 148" class="cls-3" d="M294.1,155.77a4.73,4.73,0,0,1-6.69.28c-.11-.1-.21-.2-.31-.31q-1.2-1.56-1.2-7c0-3.6.4-5.91,1.2-6.95a4.73,4.73,0,0,1,6.68-.35c.11.1.22.21.32.32.78,1,1.18,3.34,1.18,7s-.4,6-1.18,7m-3.51-13.2a1.66,1.66,0,0,0-1.43.7q-.68.93-.68,5.52t.68,5.48a1.64,1.64,0,0,0,1.43.7,1.7,1.7,0,0,0,1.47-.7c.42-.59.64-2.42.64-5.48s-.22-4.92-.64-5.52a1.7,1.7,0,0,0-1.47-.7Z"/><path id="Path_149" data-name="Path 149" class="cls-3" d="M263.32,155.77a4.73,4.73,0,0,1-6.69.28l-.31-.31q-1.2-1.56-1.2-7c0-3.6.4-5.91,1.2-6.95a4.73,4.73,0,0,1,6.68-.35c.11.1.22.21.32.32.79,1,1.18,3.34,1.18,7s-.39,6-1.18,7m-3.51-13.2a1.69,1.69,0,0,0-1.43.7q-.67.93-.67,5.52t.67,5.48a1.66,1.66,0,0,0,1.43.7,1.7,1.7,0,0,0,1.47-.7c.42-.59.64-2.42.64-5.48s-.22-4.92-.64-5.52a1.7,1.7,0,0,0-1.47-.7Z"/><path id="Path_150" data-name="Path 150" class="cls-3" d="M324.71,155.77a4.74,4.74,0,0,1-6.69.29c-.11-.1-.21-.21-.31-.32q-1.2-1.56-1.2-7c0-3.6.4-5.91,1.2-6.95a4.73,4.73,0,0,1,6.68-.35,3.22,3.22,0,0,1,.32.32c.78,1,1.18,3.34,1.18,7s-.39,6-1.18,7m-3.51-13.2a1.66,1.66,0,0,0-1.43.7q-.67.93-.67,5.52t.67,5.48a1.64,1.64,0,0,0,1.43.7,1.7,1.7,0,0,0,1.47-.7q.63-.89.63-5.48t-.63-5.52a1.7,1.7,0,0,0-1.47-.7Z"/><path id="Path_151" data-name="Path 151" class="cls-3" d="M183.11,155.77a4.72,4.72,0,0,1-6.68.28c-.11-.1-.22-.2-.32-.31q-1.2-1.56-1.2-7c0-3.6.4-5.91,1.2-6.95a4.74,4.74,0,0,1,6.69-.35,3.14,3.14,0,0,1,.31.32c.79,1,1.18,3.34,1.18,7s-.39,6-1.18,7m-3.5-13.2a1.69,1.69,0,0,0-1.44.7c-.44.62-.67,2.46-.67,5.52s.23,4.87.67,5.48a1.85,1.85,0,0,0,2.9,0q.65-.89.64-5.48t-.64-5.52a1.68,1.68,0,0,0-1.46-.7Z"/><path id="Path_152" data-name="Path 152" class="cls-3" d="M215.61,157.05h-2.46v-1.47a3.78,3.78,0,0,1-1,1.12,3.17,3.17,0,0,1-1.95.6,3.57,3.57,0,0,1-2.82-1.21,5.48,5.48,0,0,1-1.07-3.73,4.71,4.71,0,0,1,1.47-3.73,5.07,5.07,0,0,1,3.51-1.12H213V144.9c0-1.57-.65-2.36-1.95-2.36a1.69,1.69,0,0,0-1.27.54,2.68,2.68,0,0,0-.61,1.92h-2.58a4.7,4.7,0,0,1,1.24-3.48,4.34,4.34,0,0,1,3.22-1.24,4.26,4.26,0,0,1,3.22,1.15,5,5,0,0,1,1.31,3.63v12m-5.9-7.05a3,3,0,0,0-.77,2.27c0,1.85.67,2.77,2,2.77a1.81,1.81,0,0,0,1.5-.71,2.93,2.93,0,0,0,.58-1.87V149.4h-1.47a2.59,2.59,0,0,0-1.85.6Z"/><path id="Path_153" data-name="Path 153" class="cls-3" d="M150.38,157.05l-1.08-5.36H144L143,157.05h-2.87l5.29-22.7H148l5.26,22.7h-2.9m-5.83-7.81h4.24l-2.1-10.46Z"/><path id="Path_154" data-name="Path 154" class="cls-3" d="M131.42,154.27a1.79,1.79,0,0,0,1.45.7,1.87,1.87,0,0,0,1.47-.63,2.69,2.69,0,0,0,.58-1.88h2.58a5.28,5.28,0,0,1-1.31,3.63,4.28,4.28,0,0,1-3.31,1.21,4.38,4.38,0,0,1-3.27-1.27c-1-1-1.48-3.42-1.48-7.24a28.49,28.49,0,0,1,.26-4.43,4.89,4.89,0,0,1,1.18-2.81,4.32,4.32,0,0,1,3.25-1.28,4.22,4.22,0,0,1,3.25,1.28,6,6,0,0,1,1.25,3.16,43,43,0,0,1,.19,4.68h-6.8c0,2.66.24,4.29.71,4.88m1.4-11.7a1.87,1.87,0,0,0-1.5.77q-.6.85-.6,4.11h4.2c0-2.27-.2-3.66-.6-4.14a1.88,1.88,0,0,0-1.5-.74Z"/><g id="Group_204" data-name="Group 204"><g class="cls-4"><g id="Group_203" data-name="Group 203"><path id="Path_155" data-name="Path 155" class="cls-5" d="M89.75,139.54A7.56,7.56,0,1,1,82.19,132h0a7.56,7.56,0,0,1,7.56,7.56"/><path id="Path_156" data-name="Path 156" class="cls-6" d="M92.45,152.13a9.68,9.68,0,1,1-9.68-9.68,9.67,9.67,0,0,1,9.68,9.68h0"/><path id="Path_157" data-name="Path 157" class="cls-7" d="M101.69,139.14a9.62,9.62,0,1,1-9.62-9.62,9.62,9.62,0,0,1,9.62,9.62h0"/><path id="Path_158" data-name="Path 158" class="cls-8" d="M103.05,152.51a9.62,9.62,0,1,1-9.62-9.61h0a9.62,9.62,0,0,1,9.62,9.61"/><path id="Path_159" data-name="Path 159" class="cls-5" d="M103.44,143.23a5.55,5.55,0,1,1-5.55-5.56,5.55,5.55,0,0,1,5.55,5.56h0"/><path id="Path_160" data-name="Path 160" class="cls-6" d="M92.39,131.59A5.55,5.55,0,1,1,86.84,126a5.54,5.54,0,0,1,5.55,5.55h0"/><path id="Path_161" data-name="Path 161" class="cls-8" d="M80.37,150.79a5.55,5.55,0,1,1-5.55-5.56,5.55,5.55,0,0,1,5.55,5.56h0"/></g></g></g></g></svg>