<svg width="188" height="272" viewBox="0 0 188 272" fill="none" xmlns="http://www.w3.org/2000/svg">
<path fill-rule="evenodd" clip-rule="evenodd" d="M182.689 202.346L111.621 271.346H101.416L0.873047 202.473H50.2281L109.844 251.933H116.905L177.258 202.352L182.689 202.346Z" fill="#ECECEC"/>
<path fill-rule="evenodd" clip-rule="evenodd" d="M3.31006 69.0059L74.3781 0.00585938H84.5841L185.122 68.8779H135.772L76.1571 19.4178H69.0961L8.73906 68.9958L3.31006 69.0059Z" fill="#ECECEC"/>
<path d="M86.8581 202.471C69.0321 202.451 51.9421 195.361 39.3372 182.756C26.7324 170.151 19.6422 153.061 19.6221 135.235C19.6422 117.409 26.7324 100.319 39.3372 87.7142C51.9421 75.1094 69.0321 68.0191 86.8581 67.999C104.684 68.0191 121.774 75.1094 134.379 87.7142C146.984 100.319 154.074 117.409 154.094 135.235C154.074 153.061 146.984 170.151 134.379 182.756C121.774 195.361 104.684 202.451 86.8581 202.471V202.471ZM86.8581 68.733C69.2275 68.7537 52.325 75.7665 39.8583 88.2332C27.3916 100.7 20.3787 117.602 20.3581 135.233C20.3787 152.864 27.3916 169.766 39.8583 182.233C52.325 194.7 69.2275 201.712 86.8581 201.733C104.489 201.712 121.391 194.7 133.858 182.233C146.325 169.766 153.337 152.864 153.358 135.233C153.337 117.603 146.324 100.7 133.858 88.2339C121.391 75.7674 104.488 68.7547 86.8581 68.734V68.733Z" stroke="#F77A19" stroke-width="3"/>
<path d="M86.857 214.822C65.7566 214.798 45.5274 206.405 30.6071 191.485C15.6869 176.565 7.2941 156.335 7.27002 135.235H8.00401C8.02757 156.141 16.3429 176.184 31.1258 190.967C45.9087 205.75 65.9519 214.065 86.858 214.089C129.399 214.089 164.764 179.503 165.692 136.989L165.7 136.63H181.269V137.364H166.417C165.913 158.023 157.347 177.665 142.55 192.09C127.701 206.702 107.69 214.87 86.857 214.822Z" stroke="#707070" stroke-width="3"/>
<path d="M180.671 141.455V132.544L185.125 137L180.671 141.455Z" stroke="#707070" stroke-width="3"/>
<path d="M47.0332 125.753H42.5996V137.98H40.1484V125.753H35.7539V123.761H47.0332V125.753ZM57.2188 131.632H51.3789V136.007H58.2051V137.98H48.9082V123.761H58.1367V125.753H51.3789V129.679H57.2188V131.632ZM71.0664 133.351C70.9232 134.868 70.3633 136.053 69.3867 136.906C68.4102 137.752 67.1113 138.175 65.4902 138.175C64.3574 138.175 63.3581 137.908 62.4922 137.375C61.6328 136.834 60.9688 136.069 60.5 135.08C60.0312 134.09 59.7871 132.941 59.7676 131.632V130.304C59.7676 128.963 60.0052 127.781 60.4805 126.759C60.9557 125.737 61.6361 124.949 62.5215 124.396C63.4134 123.843 64.4421 123.566 65.6074 123.566C67.1764 123.566 68.4395 123.992 69.3965 124.845C70.3535 125.698 70.9102 126.903 71.0664 128.458H68.6055C68.4883 127.436 68.1888 126.701 67.707 126.251C67.2318 125.796 66.5319 125.568 65.6074 125.568C64.5332 125.568 63.7064 125.962 63.127 126.75C62.554 127.531 62.2611 128.68 62.248 130.197V131.457C62.248 132.993 62.5215 134.165 63.0684 134.972C63.6217 135.779 64.429 136.183 65.4902 136.183C66.4603 136.183 67.1895 135.965 67.6777 135.529C68.166 135.093 68.4753 134.367 68.6055 133.351H71.0664ZM84.5723 137.98H82.1113V131.662H75.7539V137.98H73.2832V123.761H75.7539V129.679H82.1113V123.761H84.5723V137.98ZM98.7812 137.98H96.3105L89.9727 127.892V137.98H87.502V123.761H89.9727L96.3301 133.888V123.761H98.7812V137.98ZM104.309 137.98H101.848V123.761H104.309V137.98ZM118.195 133.351C118.052 134.868 117.492 136.053 116.516 136.906C115.539 137.752 114.24 138.175 112.619 138.175C111.486 138.175 110.487 137.908 109.621 137.375C108.762 136.834 108.098 136.069 107.629 135.08C107.16 134.09 106.916 132.941 106.896 131.632V130.304C106.896 128.963 107.134 127.781 107.609 126.759C108.085 125.737 108.765 124.949 109.65 124.396C110.542 123.843 111.571 123.566 112.736 123.566C114.305 123.566 115.568 123.992 116.525 124.845C117.482 125.698 118.039 126.903 118.195 128.458H115.734C115.617 127.436 115.318 126.701 114.836 126.251C114.361 125.796 113.661 125.568 112.736 125.568C111.662 125.568 110.835 125.962 110.256 126.75C109.683 127.531 109.39 128.68 109.377 130.197V131.457C109.377 132.993 109.65 134.165 110.197 134.972C110.751 135.779 111.558 136.183 112.619 136.183C113.589 136.183 114.318 135.965 114.807 135.529C115.295 135.093 115.604 134.367 115.734 133.351H118.195ZM128.371 134.669H122.863L121.711 137.98H119.143L124.514 123.761H126.73L132.111 137.98H129.533L128.371 134.669ZM123.557 132.677H127.678L125.617 126.779L123.557 132.677ZM136.203 136.007H142.658V137.98H133.732V123.761H136.203V136.007ZM72.2969 146.761H74.7578V156.732C74.7578 158.093 74.3314 159.173 73.4785 159.974C72.6322 160.775 71.5124 161.175 70.1191 161.175C68.6348 161.175 67.4889 160.801 66.6816 160.052C65.8743 159.304 65.4707 158.262 65.4707 156.927H67.9316C67.9316 157.682 68.1172 158.252 68.4883 158.636C68.8659 159.014 69.4095 159.203 70.1191 159.203C70.7832 159.203 71.3105 158.985 71.7012 158.548C72.0983 158.106 72.2969 157.497 72.2969 156.722V146.761ZM87.9902 146.761V156.263C87.9902 157.774 87.5052 158.972 86.5352 159.857C85.5716 160.736 84.2858 161.175 82.6777 161.175C81.0501 161.175 79.7578 160.742 78.8008 159.876C77.8438 159.004 77.3652 157.796 77.3652 156.253V146.761H79.8262V156.273C79.8262 157.223 80.0671 157.949 80.5488 158.451C81.0306 158.952 81.7402 159.203 82.6777 159.203C84.5788 159.203 85.5293 158.2 85.5293 156.195V146.761H87.9902ZM95.8613 155.501H93.1074V160.98H90.6367V146.761H95.6367C97.2773 146.761 98.5436 147.129 99.4355 147.865C100.327 148.6 100.773 149.665 100.773 151.058C100.773 152.009 100.542 152.806 100.08 153.451C99.6243 154.089 98.9863 154.58 98.166 154.925L101.359 160.853V160.98H98.7129L95.8613 155.501ZM93.1074 153.519H95.6465C96.4798 153.519 97.1309 153.311 97.5996 152.894C98.0684 152.471 98.3027 151.895 98.3027 151.166C98.3027 150.404 98.0846 149.815 97.6484 149.398C97.2188 148.981 96.5742 148.766 95.7148 148.753H93.1074V153.519ZM107.287 153.5L110.559 146.761H113.293L108.527 155.746V160.98H106.047V155.746L101.271 146.761H104.016L107.287 153.5Z" fill="#00124D"/>
</svg>
